<?xml version="1.0" standalone="no"?>
<!DOCTYPE svg PUBLIC "-//W3C//DTD SVG 20010904//EN"
 "http://www.w3.org/TR/2001/REC-SVG-20010904/DTD/svg10.dtd">
<svg version="1.0" xmlns="http://www.w3.org/2000/svg"
 width="512.000000pt" height="512.000000pt" viewBox="0 0 512.000000 512.000000"
 preserveAspectRatio="xMidYMid meet">
<metadata>
Created by potrace 1.14, written by Peter Selinger 2001-2017
</metadata>
<g transform="translate(0.000000,512.000000) scale(0.100000,-0.100000)"
fill="#000000" stroke="none">
<path d="M1545 4906 c-60 -14 -136 -30 -168 -37 -66 -13 -85 -28 -94 -70 -3
-16 -11 -29 -17 -30 -6 0 -18 -2 -26 -4 -8 -2 -46 -10 -84 -18 l-70 -15 -27
29 c-15 16 -34 29 -42 29 -17 0 -282 -55 -339 -70 -20 -6 -48 -24 -62 -41 -28
-32 -28 -35 -31 -89 -1 -34 -3 -35 -54 -46 -51 -12 -52 -12 -62 13 -5 13 -9
29 -9 34 0 6 -12 21 -26 34 -35 32 -67 32 -227 -4 -169 -37 -195 -63 -173
-171 8 -38 29 -138 52 -240 7 -36 16 -76 18 -90 2 -14 9 -45 15 -70 5 -25 12
-57 15 -72 8 -45 29 -81 58 -97 26 -15 76 -11 188 14 14 3 36 8 50 11 122 24
155 54 148 136 l-3 41 52 12 c52 12 52 12 61 -14 13 -35 43 -65 81 -80 33 -14
84 -8 244 30 55 13 63 8 72 -41 3 -19 8 -42 10 -50 2 -8 7 -28 9 -45 3 -16 12
-54 19 -82 8 -29 11 -54 8 -54 -3 -1 -236 -2 -516 -3 -492 -1 -511 -2 -545
-21 -19 -12 -43 -36 -53 -55 -16 -33 -17 -131 -15 -1717 l3 -1682 21 -28 c11
-15 36 -36 55 -45 32 -17 171 -18 2479 -18 2308 0 2447 1 2479 18 19 9 44 30
55 45 21 28 21 33 23 1145 3 1191 4 1163 -45 1170 -26 4 -24 -5 -26 111 -2 93
-1 94 25 103 14 5 31 20 38 34 8 17 11 148 11 427 0 449 0 451 -70 491 -33 19
-53 21 -340 21 l-305 0 -75 205 c-41 113 -81 215 -88 227 -25 44 -66 55 -210
57 -147 2 -194 -8 -227 -47 -12 -13 -52 -109 -89 -213 -38 -104 -74 -198 -81
-209 -12 -19 -22 -20 -136 -19 -68 1 -126 2 -129 3 -3 0 -5 61 -4 133 0 73 -3
153 -8 177 -13 70 -52 144 -104 198 -180 187 -485 148 -618 -79 -38 -65 -52
-146 -51 -298 1 -112 -1 -130 -14 -131 -9 -1 -207 -2 -439 -3 -369 -1 -425 1
-432 14 -4 8 -24 97 -45 198 -43 205 -44 196 34 207 25 3 71 13 101 20 73 19
119 27 154 29 31 1 29 3 96 -121 50 -94 80 -118 143 -118 57 1 129 29 187 75
51 40 82 108 81 177 0 56 -7 73 -81 208 -15 28 -42 77 -60 110 -51 92 -89 145
-145 200 -158 154 -372 206 -620 151z m-305 -1672 c7 -7 45 -175 76 -334 7
-35 121 -570 140 -655 8 -38 17 -79 19 -90 4 -20 -1 -20 -495 -20 l-500 0 -1
30 c0 16 -1 98 -1 180 0 170 -8 212 -44 221 -29 7 -26 -2 -29 112 -3 89 -2 94
20 102 49 19 53 36 51 256 0 112 2 205 7 207 21 7 750 -2 757 -9z m1300 7 l46
-1 -1 -141 0 -141 -47 -16 c-65 -24 -104 -57 -133 -115 -60 -121 -5 -268 120
-318 26 -10 50 -13 146 -18 15 -1 17 -21 17 -175 0 -123 -3 -176 -12 -178 -6
-2 -150 -4 -321 -3 l-310 0 -17 80 c-17 78 -23 104 -33 155 -2 14 -14 68 -25
120 -12 52 -30 136 -41 185 -11 50 -22 101 -24 115 -3 14 -19 90 -36 170 -17
80 -33 156 -35 170 -3 14 -9 41 -14 60 -14 49 -14 49 33 52 33 2 459 2 687 -1z
m1234 -4 c10 -4 13 -113 13 -551 0 -300 -3 -546 -6 -547 -3 -1 -122 -2 -264
-3 l-257 -1 2 179 3 179 65 2 c81 3 139 26 180 71 117 129 62 330 -103 379
l-41 12 1 126 c0 70 1 135 2 145 1 16 17 17 196 15 108 0 202 -3 209 -6z m861
3 c14 0 12 -1090 -3 -1099 -5 -3 -93 -6 -194 -6 l-183 0 -3 552 -2 552 82 3
c65 2 233 1 303 -2z"/>
</g>
</svg>
