<?xml version="1.0" standalone="no"?>
<!DOCTYPE svg PUBLIC "-//W3C//DTD SVG 20010904//EN"
 "http://www.w3.org/TR/2001/REC-SVG-20010904/DTD/svg10.dtd">
<svg version="1.0" xmlns="http://www.w3.org/2000/svg"
 width="1080.000000pt" height="1080.000000pt" viewBox="0 0 1080.000000 1080.000000"
 preserveAspectRatio="xMidYMid meet">
<metadata>
Created by potrace 1.14, written by Peter Selinger 2001-2017
</metadata>
<g transform="translate(0.000000,1080.000000) scale(0.100000,-0.100000)"
fill="#000000" stroke="none">
<path d="M1 10343 c0 -318 3 -469 11 -496 9 -30 9 -43 0 -58 -9 -14 -12 -270
-12 -1031 1 -856 3 -1022 15 -1068 20 -73 19 -116 -1 -124 -14 -5 -16 -19 -10
-99 9 -113 9 -141 1 -193 -7 -44 1 -80 36 -160 26 -62 21 -99 -16 -108 -21 -5
-25 -12 -25 -41 0 -18 10 -50 21 -70 24 -40 21 -95 -6 -125 -19 -21 -20 -137
-3 -222 10 -49 10 -61 -1 -68 -11 -6 -12 -25 -6 -92 4 -45 7 -101 5 -123 -1
-22 -4 -1441 -6 -3152 l-4 -3113 510 0 c429 0 510 2 510 14 0 8 -7 16 -15 20
-21 8 -19 72 5 123 13 31 26 44 47 49 66 16 104 61 76 89 -13 14 -14 20 -5 34
35 48 37 63 13 82 -13 11 -22 21 -20 23 12 12 109 33 130 29 31 -6 81 -42 58
-43 -9 0 -24 -9 -34 -20 -18 -20 -18 -21 3 -50 27 -36 27 -46 2 -62 -27 -17
-25 -32 4 -48 17 -8 26 -23 28 -44 3 -28 7 -31 47 -38 33 -6 49 -4 61 7 24 22
60 8 60 -24 0 -32 -8 -44 -38 -60 -16 -9 -22 -21 -22 -46 l0 -35 131 0 c117 0
129 2 115 15 -33 34 -28 143 8 167 17 11 72 9 99 -3 60 -27 61 -131 3 -171 -6
-4 161 -8 370 -8 l382 0 7 37 c4 21 11 43 16 49 5 7 8 18 7 25 -2 9 6 14 22
14 14 0 25 -4 26 -10 0 -5 6 -23 13 -39 6 -15 12 -39 13 -52 l2 -24 2273 0
c1250 0 2273 1 2273 3 0 1 -4 16 -9 34 -6 19 -5 48 0 74 6 24 11 104 13 178 2
75 9 155 16 179 13 42 13 43 -18 75 -28 29 -32 39 -32 91 0 88 20 196 39 205
10 6 33 2 61 -8 38 -14 47 -23 58 -56 7 -22 16 -73 19 -115 5 -74 5 -75 -26
-103 -35 -31 -37 -49 -16 -116 31 -100 39 -160 26 -196 -10 -29 -10 -40 3 -67
27 -62 38 -109 32 -144 l-7 -34 934 0 934 0 1 30 c1 17 3 36 4 43 1 7 -2 25
-6 40 -6 24 -3 29 21 38 35 13 92 3 100 -17 3 -9 2 -30 -3 -47 -5 -18 -8 -44
-6 -59 l3 -28 106 0 106 0 -7 85 c-4 53 -2 85 4 85 18 0 30 -40 30 -104 l0
-66 228 0 227 0 0 89 c0 71 4 93 18 108 21 24 22 50 1 99 -12 29 -14 53 -9 94
14 112 16 193 5 223 -14 41 7 138 33 145 9 2 17 8 17 13 0 5 9 9 20 9 10 0 24
9 30 20 11 21 2 25 -42 21 -10 -1 -18 3 -18 9 0 7 15 10 38 8 34 -3 37 -5 40
-38 2 -19 12 -43 22 -52 32 -30 43 -84 35 -162 -9 -84 -9 -131 0 -206 6 -49 4
-59 -19 -93 -31 -45 -31 -50 -9 -84 12 -17 18 -54 21 -114 l4 -89 299 0 299 0
0 49 c0 56 -17 69 -65 51 -34 -13 -48 -2 -43 31 2 20 10 25 40 27 57 5 68 28
68 146 0 78 -4 103 -16 118 -16 16 -16 18 0 24 27 10 23 190 -5 244 l-21 41
21 18 c25 22 30 91 7 91 -8 0 -23 11 -34 25 -11 14 -27 25 -35 25 -9 0 -18 4
-22 9 -9 16 12 92 30 105 18 13 18 55 -1 184 -8 57 -1 80 41 124 36 38 46 83
24 105 -7 7 -9 29 -4 60 4 26 9 108 11 182 l5 134 -23 -8 c-56 -17 -75 -17
-82 1 -8 21 4 34 33 37 22 1 23 4 18 77 -7 98 -20 156 -42 180 -14 16 -15 24
-6 52 14 42 41 186 41 216 0 13 11 40 25 60 31 46 31 55 0 72 -33 18 -32 46 3
62 l27 13 3 2576 2 2577 -21 5 c-17 5 -21 11 -16 33 4 21 -2 32 -27 55 -25 22
-29 30 -18 40 6 7 28 12 47 11 l35 -3 0 113 c-1 96 -3 110 -14 96 -16 -22 -35
-23 -42 -3 -4 11 -21 15 -55 15 -52 0 -74 19 -50 43 6 6 11 23 11 38 0 37 22
54 50 39 31 -17 47 1 34 37 -8 23 -15 28 -41 26 -36 -3 -56 16 -51 49 3 25 32
29 94 15 30 -8 31 -7 44 40 16 60 25 535 10 563 -6 12 -6 21 -1 25 15 9 13
592 -2 616 -9 15 -9 23 1 39 9 15 12 157 12 610 l0 590 -809 0 -809 0 -7 -37
c-5 -21 -10 -45 -12 -53 -1 -8 4 -35 13 -59 12 -31 15 -62 11 -110 -3 -37 1
-109 9 -164 15 -102 14 -120 -14 -174 -14 -29 -15 -38 -2 -80 19 -66 19 -152
1 -183 -11 -19 -14 -54 -12 -153 l3 -128 -48 3 -49 3 -8 45 c-4 25 -5 84 -2
132 3 49 2 89 -3 92 -16 10 -4 194 14 221 11 17 12 25 5 25 -7 0 -24 26 -38
57 l-26 57 12 131 c11 120 21 168 42 220 13 30 14 65 5 113 l-8 42 -494 0
-494 0 0 -59 c0 -32 7 -75 15 -94 20 -49 19 -103 -4 -141 -11 -18 -21 -61 -25
-103 -7 -75 -25 -122 -59 -160 -23 -26 -43 -28 -98 -12 -56 17 -65 51 -35 132
25 65 24 122 -2 222 -6 22 -13 79 -17 128 l-7 87 -249 0 -249 0 0 -39 c0 -52
-39 -101 -81 -101 -38 0 -84 64 -77 110 l5 30 -939 0 c-619 0 -938 -3 -938
-10 0 -5 8 -10 18 -10 9 0 23 -9 30 -21 7 -11 32 -28 56 -39 24 -10 47 -23 50
-29 12 -18 -15 -135 -34 -153 -27 -25 -62 -22 -94 7 -23 22 -36 25 -95 25 -39
0 -92 -8 -124 -19 -47 -15 -60 -16 -84 -5 -15 7 -44 15 -64 18 -63 11 -73 31
-65 141 l6 95 -271 0 c-254 0 -271 -1 -264 -17 17 -39 17 -74 1 -98 -56 -86
-159 -31 -142 75 l6 40 -335 0 c-324 0 -335 -1 -335 -19 0 -11 -12 -29 -27
-41 -22 -17 -36 -20 -65 -16 -29 5 -37 3 -41 -11 -3 -11 -5 -7 -6 10 -1 22 -6
27 -27 27 -14 0 -23 4 -19 10 3 6 15 10 26 10 10 0 19 7 19 15 0 13 -116 15
-985 15 -931 0 -985 -1 -986 -17 0 -10 -2 -26 -4 -36 -2 -11 5 -19 19 -23 21
-5 23 -13 32 -122 5 -64 8 -125 6 -134 -6 -23 -62 -48 -110 -48 -46 0 -62 -15
-40 -36 11 -11 21 -12 46 -3 27 9 36 8 62 -11 37 -27 40 -73 7 -140 -25 -52
-40 -57 -113 -40 l-52 13 -45 -38 c-37 -31 -47 -47 -58 -93 -10 -41 -10 -57
-2 -59 31 -11 78 -51 81 -69 8 -58 -99 -134 -138 -99 -10 9 -47 26 -82 39 -64
22 -69 32 -25 49 9 3 17 13 17 21 0 10 6 13 15 10 8 -4 12 -11 9 -18 -3 -6 2
-2 10 8 10 13 16 38 15 70 -1 76 21 259 33 273 6 7 29 18 51 24 43 11 66 32
67 60 0 9 9 24 20 34 16 15 20 31 20 85 0 103 7 125 50 155 41 28 47 53 29
113 l-11 32 -688 0 -689 0 0 -457z m895 373 c-1 -12 -9 -22 -19 -24 -15 -3
-18 0 -12 17 4 12 2 21 -4 21 -8 0 -7 6 1 19 11 18 13 18 23 4 7 -9 12 -26 11
-37z m7450 9 c19 -29 13 -106 -13 -192 -15 -47 -15 -54 -1 -70 9 -10 18 -47
21 -84 7 -81 -6 -99 -74 -99 -37 0 -50 5 -73 28 -14 16 -29 45 -32 64 -5 29
-1 41 27 72 l32 37 -21 45 c-25 51 -33 184 -12 209 8 10 31 15 71 15 51 0 61
-3 75 -25z m1549 -29 c15 -40 16 -49 3 -88 -10 -30 -21 -44 -35 -46 -20 -3
-20 1 -18 85 4 103 1 93 19 93 8 0 22 -20 31 -44z m-2144 3 c9 -18 7 -25 -9
-41 -16 -16 -23 -18 -41 -9 -23 13 -28 40 -9 59 19 19 46 14 59 -9z m-4251
-19 c4 0 6 -9 3 -20 -5 -17 0 -20 26 -20 25 0 31 4 31 21 0 11 5 17 10 14 6
-3 10 -28 10 -56 0 -47 -1 -49 -27 -49 -25 1 -26 2 -10 14 23 18 22 46 -3 46
-11 0 -20 -7 -20 -15 0 -8 -7 -15 -15 -15 -9 0 -12 6 -9 15 9 23 -7 17 -46
-15 -19 -17 -38 -30 -42 -30 -4 0 -8 20 -8 45 0 43 1 45 28 44 26 0 26 -1 5
-9 -13 -5 -23 -18 -23 -29 0 -32 15 -32 44 -1 26 29 33 54 19 63 -5 2 -2 2 5
0 8 -1 17 -3 22 -3z m-1175 -96 c6 -70 4 -93 -9 -120 -24 -50 -66 -40 -66 17
0 14 -5 40 -11 58 -10 28 -9 35 10 52 14 13 21 16 22 7 1 -7 5 1 8 17 10 39 4
48 -25 42 -13 -2 -24 0 -24 4 0 5 20 9 44 9 l44 0 7 -86z m1222 80 c-3 -3 -12
-4 -19 -1 -8 3 -5 6 6 6 11 1 17 -2 13 -5z m-544 -34 c-4 -17 0 -20 24 -20 16
0 35 6 42 13 10 10 11 9 6 -5 -5 -11 -18 -18 -35 -18 -16 0 -30 -4 -32 -10 -1
-5 -13 6 -26 25 l-22 35 24 0 c19 0 23 -4 19 -20z m90 13 c-7 -2 -19 -2 -25 0
-7 3 -2 5 12 5 14 0 19 -2 13 -5z m4269 -70 c14 -13 18 -31 18 -91 0 -90 -10
-101 -91 -102 -68 0 -84 14 -99 87 -18 81 -11 106 30 120 43 16 117 8 142 -14z
m378 -9 c8 -8 14 -34 14 -57 1 -41 1 -42 -37 -45 -44 -4 -59 18 -33 47 9 10
16 30 16 44 0 30 20 36 40 11z m-4706 -23 c3 -5 -1 -11 -9 -14 -9 -4 -12 -1
-8 9 6 16 10 17 17 5z m506 -28 c3 -3 -5 -2 -17 1 -20 6 -23 4 -23 -18 0 -14
3 -26 6 -26 20 0 43 24 49 51 8 35 29 26 23 -11 -2 -16 -18 -28 -60 -45 -32
-13 -60 -20 -63 -15 -3 4 2 10 10 14 18 7 20 57 3 75 -8 7 2 6 27 -5 22 -9 42
-18 45 -21z m841 20 c15 -15 13 -121 -2 -139 -15 -18 -79 -18 -103 -1 -28 21
-24 104 6 126 40 29 79 34 99 14z m-976 -53 c0 -22 -3 -40 -7 -40 -5 0 -8 18
-8 40 0 22 4 40 8 40 4 0 8 -18 7 -40z m1793 -41 c32 -6 59 -20 78 -40 15 -16
32 -29 36 -29 5 0 24 16 44 35 41 41 57 43 89 10 50 -49 23 -175 -36 -175 -23
0 -101 43 -158 86 -53 41 -89 43 -121 9 -13 -14 -28 -25 -33 -25 -6 0 -18 -7
-28 -16 -23 -21 -46 -12 -61 22 -11 25 -10 29 23 58 20 17 39 39 42 48 3 9 18
18 34 21 15 2 31 5 35 6 4 0 29 -4 56 -10z m4713 -9 c29 -16 27 -103 -3 -124
-23 -17 -75 -21 -94 -8 -9 5 -13 125 -5 140 4 7 85 1 102 -8z m-9025 -59 c-18
-20 -20 -37 -6 -44 6 -3 5 -4 -2 -3 -16 3 -24 46 -9 46 6 0 11 7 11 16 0 8 5
12 11 9 7 -5 5 -13 -5 -24z m2664 15 c0 -7 -9 -16 -20 -19 -11 -3 -20 -10 -20
-17 0 -7 9 -14 20 -17 20 -5 25 -15 14 -26 -4 -3 -15 4 -25 16 -16 20 -20 21
-41 8 -21 -13 -22 -13 -9 3 12 15 12 19 -2 33 -15 15 -18 15 -37 -2 -14 -12
-20 -28 -17 -42 2 -12 0 -20 -4 -17 -17 10 -9 46 14 65 28 23 53 24 61 2 6
-15 9 -14 29 5 25 25 37 28 37 8z m-2410 -36 c0 -39 -13 -54 -23 -27 -7 18 3
67 14 67 5 0 9 -18 9 -40z m3224 -115 c3 -44 9 -91 12 -104 7 -23 5 -24 -26
-18 -18 4 -42 7 -54 7 -21 0 -22 4 -21 78 2 97 11 128 32 110 12 -10 17 -9 25
6 16 29 25 6 32 -79z m2975 69 c20 -14 23 -23 19 -63 -7 -75 -27 -105 -70
-109 -31 -3 -40 2 -62 31 -44 58 -33 129 24 150 29 11 66 7 89 -9z m-5035 -3
c4 -5 -3 -7 -14 -4 -23 6 -26 13 -6 13 8 0 17 -4 20 -9z m8386 -28 c0 -20 -16
-8 -23 17 -4 17 -3 19 9 9 8 -6 14 -18 14 -26z m-8394 -19 c15 6 16 4 7 -5
-14 -14 -43 -5 -43 13 0 10 3 9 9 -1 6 -9 16 -11 27 -7z m1268 -12 c23 -27 12
-82 -18 -82 -19 1 -19 2 -3 11 21 12 22 52 2 69 -8 7 -30 10 -49 8 -19 -2 -32
0 -30 4 10 16 81 8 98 -10z m-2654 -35 c0 -7 -5 -18 -12 -25 -8 -8 -8 -15 1
-26 7 -9 9 -21 5 -28 -5 -7 -9 -17 -9 -23 0 -5 -7 -11 -15 -13 -18 -3 -42 62
-27 77 5 5 5 17 -2 30 -11 20 -9 21 24 21 22 0 35 -5 35 -13z m7415 -29 c19
-17 27 -36 32 -74 8 -71 -5 -90 -66 -98 -70 -9 -80 -27 -34 -57 29 -19 40 -36
55 -83 40 -124 3 -163 -79 -82 -30 30 -55 46 -71 46 -14 0 -33 7 -42 15 -15
14 -20 11 -53 -25 -21 -21 -37 -42 -37 -45 0 -4 -9 -18 -20 -32 -11 -14 -20
-40 -20 -58 0 -37 15 -45 90 -45 31 0 41 -3 33 -11 -17 -17 -90 -23 -123 -9
-43 18 -54 44 -52 123 1 68 1 69 -40 107 -40 38 -40 39 -33 92 9 62 33 96 91
128 39 22 46 23 113 11 40 -6 77 -9 82 -5 5 3 17 23 26 45 30 75 97 101 148
57z m2339 -33 c-17 -13 -17 -14 -1 -15 21 0 23 -20 2 -20 -18 0 -20 -16 -2
-23 9 -4 9 -6 0 -6 -7 -1 -17 8 -23 19 -13 25 3 60 27 60 14 0 14 -2 -3 -15z
m-7110 -26 c21 -17 26 -29 26 -65 0 -48 -15 -63 -47 -48 -16 7 -15 8 5 11 29
6 31 43 2 43 -22 0 -27 -15 -7 -23 6 -3 -3 -6 -22 -6 -25 -1 -32 -5 -27 -16 6
-17 -11 -20 -34 -5 -10 6 -11 10 -2 10 6 0 12 5 12 10 0 6 -11 10 -25 10 -18
0 -25 -5 -25 -20 0 -14 7 -20 21 -20 11 0 17 -4 14 -10 -3 -5 -15 -10 -26 -10
-16 0 -19 7 -19 48 0 52 11 68 65 96 40 21 57 20 89 -5z m6361 -10 c9 -14 7
-16 -42 -24 -36 -6 -43 -4 -43 10 0 9 4 13 10 10 5 -3 18 -1 27 4 23 14 40 14
48 0z m-8437 -32 c11 -9 12 -29 7 -86 -4 -41 -11 -82 -15 -90 -5 -9 -11 -23
-13 -31 -4 -14 -18 -16 -70 -11 -4 1 -12 12 -17 26 -5 14 -16 25 -25 25 -16 0
-20 15 -30 98 -3 29 -7 58 -9 65 -1 6 -1 8 2 4 2 -4 9 -4 15 2 25 20 130 19
155 -2z m3976 -20 c19 -26 19 -30 5 -55 -21 -38 -63 -51 -89 -27 -28 25 -27
79 3 100 30 21 56 16 81 -18z m-4536 -35 c2 -11 11 -27 21 -36 22 -20 17 -63
-9 -71 -37 -12 -90 25 -104 72 -10 33 34 76 66 64 13 -4 24 -17 26 -29z m1388
-2 c8 0 14 -4 14 -10 0 -5 -13 -10 -29 -10 -16 0 -32 -6 -34 -12 -4 -8 -6 -9
-6 -2 -1 6 6 17 14 24 8 7 16 20 16 29 1 13 2 13 6 -1 2 -10 11 -18 19 -18z
m5031 6 c11 -10 5 -152 -7 -175 -5 -9 -11 -24 -14 -33 -4 -13 -16 -18 -41 -18
-31 0 -37 4 -51 38 -9 20 -17 68 -18 105 -2 59 0 70 18 83 20 15 99 15 113 0z
m-3781 -96 l-1 -45 -55 1 c-33 1 -64 -5 -77 -14 -23 -14 -23 -14 -23 32 0 44
1 46 28 45 23 -2 24 -2 5 -6 -17 -3 -23 -11 -23 -29 0 -33 26 -29 53 8 15 20
17 30 9 40 -8 10 -1 13 37 13 l47 0 0 -45z m794 40 c0 -5 -12 -10 -27 -10 -22
0 -25 2 -13 10 20 13 40 13 40 0z m6343 3 c3 -5 -6 -8 -19 -8 -13 0 -24 3 -24
8 0 4 9 7 19 7 11 0 22 -3 24 -7z m-6362 -47 c1 17 2 17 6 2 2 -10 10 -18 18
-18 8 0 12 -12 11 -32 -1 -28 -6 -33 -29 -36 -41 -5 -78 44 -47 63 6 4 8 16 5
28 -6 21 -5 21 14 -2 19 -21 21 -21 22 -5z m6316 -23 c-3 -10 -5 -2 -5 17 0
19 2 27 5 18 2 -10 2 -26 0 -35z m-8327 25 c0 -5 -4 -8 -8 -8 -5 0 -13 -9 -18
-20 -9 -19 -10 -18 -25 8 l-15 27 33 0 c18 0 33 -3 33 -7z m7555 -7 c-4 -12 5
-41 22 -73 15 -29 29 -56 31 -60 2 -5 -3 -8 -12 -8 -10 0 -16 9 -16 24 0 13
-7 30 -16 37 -14 11 -18 10 -30 -6 -8 -10 -12 -27 -8 -37 3 -12 0 -18 -10 -18
-21 0 -20 13 4 52 26 43 26 78 0 85 -31 8 -24 23 11 23 25 0 29 -3 24 -19z
m835 -16 c0 -8 -4 -15 -10 -15 -5 0 -10 7 -10 15 0 8 5 15 10 15 6 0 10 -7 10
-15z m-5270 -24 c42 -29 71 -97 68 -155 -4 -66 -24 -78 -130 -74 -70 3 -78 5
-104 33 -23 25 -29 27 -32 13 -2 -9 -12 -20 -23 -23 -32 -11 -21 -25 19 -25
21 0 43 -5 50 -12 15 -15 15 -53 1 -80 -9 -17 -7 -24 17 -44 24 -19 27 -26 18
-41 -18 -29 -55 -43 -116 -43 -62 0 -71 -9 -35 -35 12 -8 27 -30 33 -48 19
-56 53 -48 160 38 41 33 78 32 109 -1 22 -24 25 -36 25 -104 0 -127 -39 -177
-115 -146 -49 21 -62 20 -92 -4 -18 -14 -41 -20 -76 -20 -49 0 -49 0 -42 -27
15 -55 7 -99 -30 -171 -41 -80 -61 -97 -111 -87 -37 6 -36 6 -40 80 -2 28 -6
70 -9 93 -6 36 -3 49 14 73 28 38 27 55 -7 87 -16 15 -35 43 -42 62 -8 19 -24
49 -36 65 -12 17 -29 52 -38 79 -8 27 -27 64 -42 83 -23 30 -25 37 -14 63 6
16 9 38 5 50 -10 30 47 142 102 202 24 26 43 51 43 56 0 5 14 15 31 23 18 7
44 23 59 35 24 21 39 24 136 26 154 4 215 -1 244 -21z m-4543 -23 c17 -22 24
-88 9 -88 -7 0 -13 12 -13 30 0 36 -7 45 -29 36 -12 -5 -15 -14 -10 -36 3 -17
1 -30 -4 -30 -13 0 -13 56 0 81 12 22 33 25 47 7z m2683 -34 c0 -8 -8 -14 -17
-14 -10 0 -24 -4 -32 -9 -12 -8 -13 -12 -2 -25 8 -9 21 -15 30 -14 10 2 17 -5
19 -19 4 -30 0 -29 -38 7 -18 17 -44 30 -59 31 -22 1 -23 2 -6 7 30 10 85 45
85 55 0 4 5 5 10 2 6 -3 10 -13 10 -21z m-132 -9 c-48 -26 -48 -76 0 -94 18
-6 21 -10 10 -10 -22 -1 -58 33 -58 56 0 22 39 63 59 63 10 -1 6 -6 -11 -15z
m7240 -62 c11 -46 0 -58 -23 -26 -10 13 -10 21 -1 35 8 14 8 23 -3 41 -12 19
-12 20 2 7 8 -8 19 -34 25 -57z m-9222 33 c16 -13 17 -18 7 -35 -17 -27 -16
-39 2 -57 21 -21 8 -41 -32 -49 -90 -17 -143 104 -60 140 41 18 59 18 83 1z
m4592 -6 l32 -20 0 -84 c0 -47 5 -88 10 -91 19 -12 10 -32 -22 -46 -37 -16
-39 -35 -5 -32 52 4 52 6 -1 -180 l-17 -59 -44 6 c-24 3 -54 6 -67 6 -13 0
-24 5 -24 10 0 6 20 10 44 10 25 0 47 4 51 9 7 12 -43 51 -66 51 -11 0 -19 3
-20 8 0 4 -2 17 -5 29 -3 16 5 29 26 45 36 26 36 31 8 57 -26 25 -41 94 -39
180 2 72 12 98 44 111 35 14 60 11 95 -10z m1267 -50 c14 -15 14 -21 4 -38
-10 -16 -10 -26 -1 -46 20 -44 6 -57 -51 -54 -45 3 -54 7 -73 36 -19 27 -21
38 -12 62 11 34 64 68 95 62 12 -2 29 -12 38 -22z m-5025 16 c0 -2 -9 -6 -20
-9 -11 -3 -18 -1 -14 4 5 9 34 13 34 5z m2084 -34 c14 -23 25 -136 15 -149
-14 -16 -89 -17 -124 -1 -26 12 -33 34 -13 40 6 2 13 30 16 61 l4 57 49 0 c26
0 50 -4 53 -8z m-874 -19 c-83 -28 -108 -53 -91 -90 11 -23 10 -25 -3 -13 -21
16 -20 54 0 71 24 20 66 37 89 37 13 0 15 -1 5 -5z m-2623 -53 c10 -23 11 -50
3 -50 -18 0 -27 28 -22 65 3 23 7 32 9 20 2 -11 7 -27 10 -35z m1396 43 c-7
-2 -21 -2 -30 0 -10 3 -4 5 12 5 17 0 24 -2 18 -5z m1292 -56 c-10 -37 -23
-34 -17 3 2 17 -2 38 -9 48 -8 10 -4 9 10 -4 17 -16 21 -27 16 -47z m4730 -93
c15 -11 14 -13 -4 -19 -12 -3 -21 -14 -21 -23 -1 -16 -2 -15 -11 1 -5 9 -17
17 -24 17 -19 0 -19 14 0 30 8 7 15 29 15 50 0 56 14 58 22 4 4 -27 14 -54 23
-60z m-6002 89 c-13 -2 -33 -2 -45 0 -13 2 -3 4 22 4 25 0 35 -2 23 -4z m8390
-51 c7 -9 6 -17 -6 -29 -14 -14 -17 -14 -31 0 -9 9 -12 18 -7 21 5 4 13 21 17
39 8 30 8 30 12 7 2 -14 9 -31 15 -38z m-7176 -18 c-3 -3 -12 -4 -19 -1 -8 3
-5 6 6 6 11 1 17 -2 13 -5z m-79 -30 c1 -1 -6 -4 -18 -7 -15 -4 -20 0 -20 15
0 18 2 19 18 7 9 -7 18 -14 20 -15z m35 6 c-3 -11 -9 -20 -13 -20 -5 0 -6 9
-3 20 3 11 9 20 13 20 5 0 6 -9 3 -20z m102 -43 c-10 -37 -23 -34 -17 3 2 17
-2 38 -9 48 -8 10 -4 9 10 -4 17 -16 21 -27 16 -47z m-2121 20 c23 -17 39
-126 20 -134 -21 -8 -37 6 -24 22 6 8 7 27 2 51 -6 29 -13 40 -30 42 -26 4
-38 -30 -28 -83 6 -30 4 -35 -12 -35 -17 0 -19 6 -14 53 7 85 40 117 86 84z
m7703 7 c-3 -3 -12 -4 -19 -1 -8 3 -5 6 6 6 11 1 17 -2 13 -5z m-8266 -70 c6
-8 5 -14 -5 -17 -20 -8 -22 -3 -17 45 5 37 6 39 9 13 2 -16 8 -35 13 -41z
m6408 21 c32 -16 51 -59 51 -116 0 -33 -3 -38 -27 -42 -45 -8 -112 -2 -124 10
-18 18 -1 112 27 140 27 27 35 28 73 8z m1841 -63 c-18 -2 -38 2 -44 8 -8 9
-6 11 12 5 16 -5 22 -2 22 9 0 8 -4 18 -10 21 -5 3 -10 12 -10 18 0 7 14 -4
31 -23 l31 -35 -32 -3z m-5721 44 c9 -10 8 -16 -4 -26 -13 -11 -15 -8 -15 14
0 30 3 32 19 12z m46 4 c-3 -5 -12 -10 -18 -10 -7 0 -6 4 3 10 19 12 23 12 15
0z m7227 -22 c10 -29 -5 -78 -24 -78 -9 0 -12 15 -10 56 4 58 19 68 34 22z
m-6332 -20 c23 -51 25 -96 5 -122 -23 -30 -18 -66 20 -165 19 -49 35 -97 35
-105 0 -22 -48 -33 -119 -27 -77 7 -93 23 -72 73 7 18 20 62 28 98 8 35 19 70
24 77 8 9 4 24 -12 52 -21 37 -21 44 -9 81 7 22 17 40 22 40 4 0 8 9 8 20 0
15 7 20 25 20 21 0 30 -9 45 -42z m-860 -42 c0 -56 -13 -82 -23 -45 -8 31 -59
23 -68 -11 -5 -17 -7 -8 -7 30 -1 42 1 50 8 33 7 -17 18 -23 40 -23 28 0 30 3
30 35 0 19 5 35 10 35 6 0 10 -24 10 -54z m40 0 c0 -30 -4 -58 -10 -61 -6 -4
-10 17 -10 54 0 34 4 61 10 61 6 0 10 -24 10 -54z m4180 14 c0 -6 -11 -8 -27
-4 -40 10 -41 14 -5 14 18 0 32 -5 32 -10z m558 -36 c2 -16 8 -34 13 -41 7 -7
6 -14 -1 -18 -5 -3 -10 -19 -10 -34 0 -16 -7 -34 -16 -42 -13 -11 -14 -9 -8
15 9 38 10 95 1 129 -6 22 -5 28 5 25 7 -3 15 -18 16 -34z m-7401 -61 c-3 -10
-5 -2 -5 17 0 19 2 27 5 18 2 -10 2 -26 0 -35z m9817 -14 c30 -14 39 -45 23
-79 -10 -21 -19 -25 -52 -25 l-40 0 -3 52 c-3 47 -1 52 20 56 13 2 24 5 25 6
1 0 13 -4 27 -10z m-9276 -11 c7 -7 12 -31 12 -55 0 -32 4 -43 15 -43 8 0 15
-4 15 -10 0 -5 -7 -10 -16 -10 -24 0 -11 -24 17 -30 16 -4 20 -8 11 -14 -19
-12 -52 3 -52 25 0 10 -7 19 -15 19 -8 0 -15 5 -15 10 0 6 7 10 15 10 10 0 15
10 15 29 0 42 -10 61 -31 61 -10 0 -19 5 -19 10 0 14 33 13 48 -2z m2089 -3
c19 -8 39 -15 44 -15 5 0 9 7 9 15 0 8 5 15 10 15 6 0 10 -13 10 -29 0 -26 -6
-31 -60 -51 -33 -12 -65 -30 -70 -39 -6 -11 -9 4 -8 49 1 49 2 54 5 22 3 -28
9 -42 16 -39 17 5 21 55 6 73 -15 18 -7 18 38 -1z m5683 -25 c0 -16 -6 -33
-14 -37 -22 -12 -25 -48 -3 -47 33 3 17 -23 -22 -35 -30 -9 -45 -9 -65 0 -28
13 -33 25 -14 31 6 2 13 30 16 61 l4 57 49 0 c48 0 49 -1 49 -30z m694 2 c31
6 33 -5 7 -31 -18 -18 -19 -18 -32 8 -18 35 -23 49 -11 32 6 -8 20 -12 36 -9z
m-2601 -7 c21 -21 59 -139 55 -172 -3 -24 -8 -28 -38 -31 -28 -2 -41 3 -60 23
-21 23 -25 36 -26 103 -1 42 0 80 3 85 7 12 51 8 66 -8z m-1213 -47 c16 -18
30 -38 30 -44 0 -5 16 -36 35 -68 19 -32 35 -61 35 -65 0 -4 -12 -7 -27 -6
-23 0 -29 -5 -31 -27 -3 -22 1 -28 15 -28 11 0 24 5 31 12 20 20 15 -15 -6
-43 -26 -35 -49 -94 -68 -174 -9 -38 -23 -82 -30 -97 -11 -20 -11 -34 -3 -55
14 -37 2 -109 -24 -145 l-21 -28 -28 29 c-17 17 -26 35 -22 44 3 8 1 18 -5 22
-6 3 -11 30 -11 60 0 30 -7 80 -16 112 -9 32 -20 89 -23 127 -5 57 -3 75 13
107 17 33 18 44 8 76 -14 45 -11 158 5 174 6 6 9 17 6 25 -3 9 10 14 49 17 29
2 54 4 56 5 1 1 16 -13 32 -30z m-3750 -52 c0 -11 -19 -15 -25 -6 -3 5 1 10 9
10 9 0 16 -2 16 -4z m1187 -11 c19 -8 39 -15 44 -15 5 0 9 7 9 15 0 8 5 15 10
15 6 0 10 -13 10 -29 0 -25 -6 -31 -56 -50 -58 -22 -134 -28 -134 -11 0 5 20
23 45 38 35 22 42 31 33 40 -16 16 -5 15 39 -3z m4801 -51 c16 -11 22 -25 22
-54 0 -48 -30 -80 -74 -80 -36 0 -63 14 -48 24 11 7 11 24 -2 45 -5 8 -4 16 4
21 8 5 10 17 6 34 -6 25 -4 26 32 26 20 0 48 -7 60 -16z m2400 -16 c2 -12 -5
-19 -22 -24 -50 -12 -78 18 -33 36 31 12 51 8 55 -12z m-7163 -92 c-1 -25 -8
-52 -15 -61 -14 -17 -56 -20 -65 -5 -3 5 0 7 9 4 27 -10 57 15 54 44 -3 23 -8
27 -35 27 -20 0 -33 5 -33 12 0 8 14 13 35 13 19 0 35 5 35 11 0 5 4 8 8 5 5
-3 8 -25 7 -50z m4164 30 c9 -11 7 -15 -9 -19 -26 -7 -26 -35 1 -39 18 -3 19
-5 5 -23 l-15 -20 -15 20 c-19 25 -20 49 -4 75 15 24 22 25 37 6z m2192 4 c37
-20 18 -80 -26 -80 -42 0 -59 44 -29 74 18 19 28 20 55 6z m-749 -45 c19 -7
19 -7 -3 -23 l-22 -15 24 -10 c20 -8 21 -11 7 -14 -10 -3 -21 -15 -24 -29 -8
-31 -20 -31 -28 1 -4 14 -11 25 -16 25 -6 0 -5 9 2 21 11 18 11 23 0 26 -10 4
-8 9 7 20 12 8 22 22 22 31 1 11 3 9 6 -5 2 -12 13 -25 25 -28z m-7699 -70
l22 -8 -22 -4 c-15 -3 -23 -12 -24 -26 0 -20 -1 -21 -8 -3 -4 11 -16 23 -27
27 -18 7 -18 8 4 15 19 5 22 14 24 58 l2 51 3 -51 c3 -43 8 -53 26 -59z m5844
63 c5 -7 17 -39 26 -70 19 -63 13 -86 -29 -108 -26 -15 -56 -1 -80 35 -15 23
-15 28 0 59 9 19 16 39 16 46 0 40 46 66 67 38z m3416 -48 l29 -54 -22 -18
c-26 -21 -73 -24 -88 -5 -8 9 -10 105 -3 135 1 2 13 2 28 0 20 -2 33 -15 56
-58z m-8435 33 c-22 -3 -28 -10 -28 -29 0 -16 6 -24 18 -25 16 -1 15 -2 -1 -6
-27 -7 -18 -46 13 -54 21 -6 19 -7 -13 -8 -35 -1 -37 1 -31 23 3 13 1 27 -6
31 -8 5 -8 10 1 21 6 8 9 23 6 34 -4 17 -1 20 31 19 31 -2 32 -3 10 -6z m2077
-19 c22 -9 56 -89 48 -112 -14 -39 -35 -52 -86 -52 -62 0 -87 19 -87 67 0 70
64 120 125 97z m-772 -115 c-7 -7 -12 -3 -15 16 -5 25 -4 25 10 11 12 -11 13
-19 5 -27z m-123 -9 c5 0 10 5 10 10 0 6 5 10 10 10 6 0 10 -7 10 -15 0 -8 -9
-15 -20 -15 -12 0 -24 -10 -30 -22 l-9 -23 0 23 c-1 14 -8 22 -18 23 -17 1
-17 2 0 6 9 2 17 14 18 26 l0 22 9 -22 c5 -13 14 -23 20 -23z m4629 3 c17 -21
38 -45 46 -54 8 -9 15 -21 15 -27 0 -7 5 -12 10 -12 6 0 10 -11 10 -25 0 -18
-7 -26 -24 -31 -42 -10 -88 28 -51 42 27 11 17 56 -20 90 -34 30 -45 54 -26
54 5 0 23 -17 40 -37z m-4545 2 c3 -8 1 -15 -4 -15 -6 0 -10 7 -10 15 0 8 2
15 4 15 2 0 6 -7 10 -15z m4158 -28 c-3 -28 0 -37 12 -37 9 0 16 -4 16 -10 0
-5 -17 -10 -38 -10 -37 0 -38 1 -37 34 2 37 21 69 39 63 6 -2 10 -20 8 -40z
m2211 -16 c24 -74 17 -91 -39 -91 -33 0 -44 4 -44 15 0 9 7 18 15 21 11 5 15
21 15 61 0 46 3 54 18 51 11 -2 23 -23 35 -57z m-3037 25 c3 -14 -2 -51 -13
-83 -14 -45 -22 -58 -38 -58 -18 0 -20 6 -17 52 3 49 1 54 -22 63 -25 9 -34
29 -19 43 3 4 28 7 54 7 43 0 49 -3 55 -24z m1038 -84 c4 -3 35 -5 69 -4 78 2
100 -9 64 -32 -18 -13 -43 -16 -93 -14 l-69 3 1 40 c1 22 2 58 4 80 2 39 3 39
10 -13 4 -29 11 -56 14 -60z m-4881 53 c5 -16 15 -43 23 -58 8 -16 14 -37 14
-48 0 -10 6 -19 13 -19 8 0 7 -4 -3 -10 -24 -16 -37 -12 -59 18 -18 26 -19 32
-6 70 17 48 12 69 -18 76 -18 3 -18 4 3 3 18 -2 27 -10 33 -32z m5282 22 c19
-15 12 -41 -8 -34 -7 2 -20 0 -30 -5 -25 -13 -57 0 -57 22 0 17 6 20 66 29 5
0 18 -5 29 -12z m835 -82 c7 -22 19 -52 26 -66 12 -25 12 -27 -9 -32 -12 -3
-40 -4 -62 -4 -30 2 -39 6 -36 17 2 8 7 40 10 71 4 31 13 64 20 73 13 15 15
15 26 -1 7 -10 18 -36 25 -58z m1563 30 c-5 -62 -12 -75 -42 -75 -37 0 -57 42
-41 84 9 24 14 27 47 24 35 -3 38 -5 36 -33z m-5575 1 c13 -12 13 -20 4 -41
-9 -20 -19 -25 -50 -25 -64 0 -103 44 -69 79 16 17 94 8 115 -13z m-3710 -22
c2 -16 8 -34 13 -40 5 -6 5 -14 0 -20 -5 -5 -11 -22 -13 -38 -2 -16 -8 -31
-14 -33 -8 -3 -9 9 -4 39 5 24 5 62 0 86 -5 30 -4 42 4 39 6 -2 13 -17 14 -33z
m2432 2 c0 -31 -2 -34 -30 -32 -26 1 -30 5 -30 28 0 21 5 27 28 31 15 2 28 5
30 6 1 0 2 -14 2 -33z m-331 5 c14 -14 19 -31 17 -60 -2 -35 -16 -73 -16 -43
0 7 -11 12 -25 12 -14 0 -25 -4 -25 -9 0 -5 -18 -11 -40 -13 -33 -3 -40 0 -40
14 0 14 6 16 30 12 22 -5 30 -3 30 7 0 9 11 14 33 14 29 0 32 3 32 29 0 37
-30 59 -48 35 -7 -9 -27 -19 -44 -22 -29 -6 -33 -4 -33 15 0 17 3 19 12 10 16
-16 36 -15 54 3 21 20 40 19 63 -4z m3766 -25 c23 -34 29 -88 16 -129 -16 -48
-34 -62 -60 -47 -19 10 -21 20 -21 99 0 48 3 91 7 94 14 15 43 6 58 -17z
m-5004 -61 c5 -75 0 -105 -17 -105 -11 0 -14 6 -8 23 4 12 8 48 8 79 1 63 13
66 17 3z m5406 -8 c3 10 8 9 20 -3 14 -13 14 -20 -2 -70 -18 -56 -32 -71 -60
-60 -13 5 -13 9 -3 26 10 15 10 26 0 52 -10 27 -9 35 5 50 13 14 19 16 26 6 7
-10 10 -10 14 -1z m583 -38 c0 -10 11 -44 25 -75 14 -31 25 -58 25 -60 0 -2
-9 -4 -21 -4 -15 0 -19 5 -15 15 3 8 0 27 -6 40 l-11 25 -18 -26 c-9 -15 -15
-33 -12 -40 3 -9 -2 -14 -16 -14 -26 0 -26 0 5 61 20 40 23 54 13 65 -6 8 -18
14 -25 14 -17 0 -18 17 -2 22 25 9 58 -4 58 -23z m-4760 -21 c0 -61 10 -88 30
-88 30 0 39 -24 41 -103 2 -92 -17 -167 -43 -167 -10 0 -18 5 -18 10 0 16 -38
11 -48 -6 -8 -14 -14 -15 -46 -4 -45 14 -53 31 -39 81 8 30 7 41 -3 50 -23 19
-14 79 12 79 19 0 43 38 37 61 -3 10 -16 22 -29 25 -17 4 -24 13 -24 30 0 13
5 24 10 24 6 0 10 -6 10 -13 0 -9 10 -12 33 -9 42 6 57 19 57 48 0 13 5 24 10
24 6 0 10 -19 10 -42z m838 37 c32 -8 59 -78 39 -102 -13 -17 -62 -16 -76 0
-6 8 -29 19 -51 26 -43 13 -45 17 -31 53 7 19 17 23 52 25 24 2 54 0 67 -2z
m-485 -36 c-4 -33 -39 -119 -48 -119 -19 0 -53 119 -39 133 3 3 24 4 47 3 29
-2 41 -7 40 -17z m6816 7 c7 -8 14 -29 17 -48 5 -26 1 -38 -15 -52 -21 -19
-21 -19 -41 4 -24 28 -26 67 -3 92 19 22 27 22 42 4z m-5547 -77 c27 -18 66
-34 86 -36 20 -2 46 -12 57 -22 11 -10 31 -21 45 -25 45 -11 55 -23 55 -68 0
-24 -4 -51 -7 -60 -7 -16 -10 -16 -45 4 -21 13 -46 33 -56 45 -26 33 -65 29
-123 -12 -27 -19 -58 -35 -69 -35 -36 0 -65 -12 -65 -26 0 -9 12 -14 34 -14
61 0 94 -66 81 -162 -12 -83 -76 -126 -121 -81 -13 13 -19 14 -22 5 -2 -6 -10
-12 -19 -12 -10 0 -12 -6 -8 -20 4 -14 2 -20 -8 -20 -22 0 -40 100 -41 235 -1
63 2 73 25 96 22 21 27 38 34 105 8 89 17 111 48 124 40 16 70 10 119 -21z
m1717 17 c7 -8 11 -30 9 -48 -6 -65 -98 -58 -98 8 0 45 62 73 89 40z m-3803
-33 c3 -21 13 -49 21 -62 14 -22 13 -25 -16 -54 l-30 -31 -26 24 c-25 24 -33
54 -16 64 5 3 12 23 16 43 8 46 12 53 30 53 8 0 17 -15 21 -37z m-1566 18 c0
-5 -6 -12 -12 -15 -10 -5 -10 -7 0 -12 18 -9 15 -27 -4 -20 -21 8 -44 -11 -44
-36 0 -12 6 -18 16 -16 10 2 19 -3 21 -9 3 -8 -5 -13 -21 -13 -27 0 -45 24
-41 52 2 10 -1 20 -6 24 -13 8 -11 42 4 47 21 9 87 7 87 -2z m7640 -63 c0 -5
-6 -8 -14 -8 -8 0 -16 -6 -18 -12 -3 -7 -7 -4 -10 7 -4 16 0 20 19 20 12 0 23
-3 23 -7z m33 -9 c-4 -15 -8 -17 -14 -8 -6 11 4 28 18 29 0 0 -1 -9 -4 -21z
m-6848 -39 c8 0 15 -4 15 -10 0 -5 -7 -10 -15 -10 -9 0 -15 -6 -14 -12 1 -7 1
-32 0 -55 -1 -31 -5 -43 -16 -43 -11 0 -15 12 -15 47 0 29 -6 53 -17 65 -14
16 -14 18 0 18 9 0 19 10 23 22 l7 23 8 -23 c5 -12 15 -22 24 -22z m1537 13
c24 -21 23 -65 -2 -88 -19 -17 -21 -17 -40 0 -24 22 -26 62 -3 87 20 22 22 22
45 1z m509 -20 c30 -34 41 -87 29 -134 -14 -50 -33 -68 -75 -69 -42 0 -72 24
-86 69 -10 34 -9 46 11 95 13 31 26 54 28 51 3 -2 14 2 25 10 22 15 41 9 68
-22z m2957 12 c22 -25 29 -75 16 -110 -4 -8 -19 -22 -35 -30 -68 -36 -109 -5
-109 83 0 32 5 63 12 70 7 7 31 12 53 12 32 0 47 -6 63 -25z m391 -4 c17 -11
6 -32 -14 -26 -8 3 -22 7 -31 10 -8 3 -12 9 -9 15 8 12 35 13 54 1z m1417 -11
c13 0 24 6 25 13 0 6 4 3 9 -8 13 -29 12 -39 -3 -27 -6 6 -26 9 -43 8 -27 -2
-30 1 -26 18 3 11 7 15 10 8 2 -6 15 -12 28 -12z m-3062 -69 c21 -9 23 -14 17
-38 -5 -15 -14 -27 -21 -25 -10 2 -11 0 -2 -10 6 -8 13 -31 15 -51 l4 -37 -59
0 c-37 0 -57 4 -53 10 9 14 -14 120 -26 120 -22 0 -6 18 24 28 42 13 70 14
101 3z m2263 -37 c2 -6 -10 -8 -32 -6 -30 4 -35 1 -35 -17 0 -12 6 -21 15 -21
8 0 15 -4 15 -10 0 -5 -7 -10 -15 -10 -9 0 -15 -9 -15 -21 0 -18 5 -20 26 -16
24 4 25 3 10 -12 -20 -20 -49 -5 -54 28 -2 11 -8 21 -13 21 -5 0 -9 5 -9 10 0
6 7 10 15 10 19 0 20 29 0 36 -8 4 -12 10 -9 16 8 12 96 6 101 -8z m-5277 -28
c30 -37 7 -166 -30 -166 -15 0 -18 11 -19 90 -1 82 0 90 17 90 11 0 25 -6 32
-14z m-1567 -28 c8 -30 -4 -47 -14 -20 -6 15 -17 22 -34 22 -29 0 -29 -1 17
-64 15 -21 28 -43 28 -48 0 -4 -20 -8 -45 -8 -44 0 -45 0 -44 33 1 23 3 26 6
10 3 -18 11 -23 34 -23 l30 0 -41 53 c-22 30 -40 57 -40 60 0 4 22 7 49 7 42
0 49 -3 54 -22z m2383 12 c10 0 14 -13 14 -49 0 -43 -3 -50 -24 -55 -31 -8
-54 1 -60 22 -17 66 -17 72 6 82 13 5 29 7 36 4 8 -2 20 -4 28 -4z m2981 -12
c30 -28 31 -66 1 -70 -26 -3 -27 -23 -1 -23 9 0 18 -6 20 -12 6 -18 -35 -73
-50 -67 -20 8 -57 69 -57 95 0 23 44 99 57 99 4 0 17 -10 30 -22z m862 8 c10
-12 8 -13 -10 -9 -19 5 -21 3 -15 -12 4 -11 2 -22 -6 -26 -10 -6 -10 -11 -1
-20 14 -14 32 -4 43 25 7 16 9 17 9 4 2 -44 -75 -68 -81 -25 -7 48 3 77 27 77
12 0 28 -6 34 -14z m-5372 -192 c1 -64 6 -121 12 -128 6 -7 14 -40 17 -74 6
-50 3 -68 -16 -107 -22 -46 -22 -47 -5 -102 20 -63 15 -145 -10 -173 -14 -16
-15 -32 -5 -141 11 -114 10 -124 -6 -136 -10 -7 -24 -13 -31 -13 -18 0 -16
-19 2 -26 8 -4 13 -10 10 -15 -3 -4 -12 -6 -19 -3 -8 3 -17 0 -21 -6 -15 -24
6 -22 61 6 56 28 61 29 214 29 154 0 157 0 198 -27 81 -54 77 -21 80 -670 l3
-578 -86 0 -85 0 0 -353 0 -353 -90 -44 c-49 -24 -90 -47 -90 -51 0 -3 69
-161 153 -350 85 -189 163 -365 175 -392 l21 -48 -156 3 -155 3 -80 180 c-102
231 -209 469 -213 473 -2 2 -17 -4 -34 -13 l-31 -16 0 -314 0 -315 -140 0
-140 0 0 890 0 890 21 0 c21 0 21 2 18 189 -2 104 -7 192 -10 195 -3 4 -38
-10 -77 -31 l-72 -38 0 -252 0 -253 -100 0 -100 0 0 640 0 640 100 0 100 0 0
-270 c0 -148 3 -270 8 -270 4 0 39 17 77 38 l70 37 3 233 2 233 98 -3 97 -3 3
-542 2 -543 60 0 c45 0 60 4 60 14 0 8 -6 16 -12 19 -10 3 -10 9 0 26 8 14 12
75 12 200 0 99 4 182 9 185 12 8 13 116 1 116 -6 0 -10 37 -10 90 0 50 3 90 8
90 10 0 9 86 0 96 -13 12 -9 149 4 162 6 6 12 22 13 34 1 13 5 30 9 38 4 11
-2 19 -24 27 l-30 11 3 158 c1 116 -1 158 -10 161 -13 5 -11 37 11 141 10 50
10 68 -2 109 -21 69 -2 294 29 356 37 72 44 79 73 66 19 -9 21 -19 23 -125z
m5589 69 c-17 -67 -17 -67 59 -76 86 -10 101 -23 44 -34 -56 -11 -56 -25 -1
-37 23 -6 42 -13 42 -16 0 -4 -29 -15 -65 -25 -35 -10 -67 -25 -70 -33 -7 -18
21 -65 48 -82 13 -7 56 -14 101 -15 50 -1 81 -6 84 -13 2 -7 -8 -12 -27 -12
-18 0 -38 -8 -49 -20 -12 -13 -41 -24 -73 -30 -50 -8 -57 -6 -94 18 -22 15
-42 31 -44 35 -1 5 -14 20 -27 34 -13 14 -24 31 -24 38 0 7 -13 29 -29 49 -25
31 -28 42 -24 79 5 35 16 52 70 105 70 69 89 77 79 35z m1254 -8 c0 -19 -5
-35 -11 -35 -6 0 -8 8 -5 18 9 28 -7 41 -59 45 -48 3 -48 3 13 5 l62 2 0 -35z
m-1862 -17 c18 -18 14 -28 -11 -28 -13 0 -28 -5 -34 -11 -17 -17 -53 -1 -53
23 0 12 3 19 6 16 3 -3 17 -2 32 2 39 12 47 11 60 -2z m-5879 -11 c-2 -1 -13
-9 -24 -17 -19 -14 -19 -14 -6 3 7 9 18 17 24 17 6 0 8 -1 6 -3z m2431 -41 c0
-14 -4 -27 -10 -31 -5 -3 -7 -12 -3 -20 8 -23 -34 -19 -47 4 -23 44 -10 69 38
70 17 1 22 -5 22 -23z m3836 -12 c17 -40 8 -87 -18 -92 -13 -2 -15 8 -14 62 0
36 5 66 9 66 4 0 15 -16 23 -36z m589 -23 l20 -24 -23 7 c-14 5 -29 3 -37 -4
-20 -17 -19 -4 3 25 9 13 17 22 17 22 0 -1 9 -13 20 -26z m-2253 -15 c-2 -10
-14 -30 -28 -45 -28 -30 -26 -47 5 -44 13 2 21 -3 21 -12 0 -19 -34 -19 -50 0
-7 8 -10 24 -7 35 3 11 1 23 -4 26 -13 8 -11 52 4 58 6 2 23 4 37 3 18 -1 24
-7 22 -21z m-4562 -31 c8 -9 9 -15 2 -15 -6 0 -14 5 -17 10 -9 14 -41 12 -53
-3 -8 -10 -6 -16 9 -25 26 -16 24 -32 -3 -32 l-23 -1 23 -19 c22 -18 52 -18
52 1 0 5 5 9 10 9 6 0 10 -8 10 -19 0 -28 -67 -39 -91 -14 -30 30 -35 77 -10
102 24 24 73 28 91 6z m1594 -11 c42 -41 2 -114 -63 -114 -36 0 -37 1 -33 30
3 20 0 30 -8 30 -10 0 -9 4 1 16 10 12 10 20 1 35 -11 18 -9 19 37 19 32 0 55
-6 65 -16z m2035 -14 c37 -19 43 -59 18 -130 -19 -56 -26 -65 -49 -68 -55 -6
-68 11 -68 93 0 63 3 77 22 95 24 22 49 25 77 10z m1747 -51 c-3 -20 -9 -44
-12 -53 -4 -11 2 -19 21 -26 40 -15 20 -30 -39 -30 l-54 0 -6 44 c-11 73 23
121 78 108 15 -4 17 -11 12 -43z m431 24 c3 -10 17 -42 29 -71 29 -64 29 -65
2 -95 -30 -31 -71 -29 -98 6 -20 25 -20 28 -5 56 19 38 19 75 0 91 -21 18 -9
30 31 30 24 0 37 -5 41 -17z m1851 -85 c-10 -8 -10 -11 0 -15 18 -7 15 -21 -8
-28 -20 -6 -50 9 -50 25 0 4 8 10 18 12 15 4 18 12 14 38 -4 25 0 37 14 47 18
13 19 11 22 -28 2 -27 -2 -45 -10 -51z m-5274 10 c-4 -24 -11 -48 -15 -54 -5
-6 -6 -14 -3 -17 4 -3 -3 -5 -14 -4 -11 0 -18 5 -16 9 3 4 2 14 -3 21 -4 6 -8
29 -9 50 0 35 1 37 33 37 l33 0 -6 -42z m3856 27 c9 -11 8 -24 -5 -60 -18 -46
-35 -59 -35 -27 -1 9 -7 28 -14 41 -11 20 -11 27 3 42 19 23 34 24 51 4z
m-7125 -95 c3 -6 -5 -10 -19 -10 -14 0 -30 -8 -35 -17 -9 -15 -10 -15 -11 -2
0 31 50 54 65 29z m5464 -44 c8 -10 0 -140 -13 -191 -2 -11 -5 -26 -5 -33 -1
-10 -6 -10 -21 -2 -16 9 -22 8 -26 -5 -9 -22 -32 -18 -40 8 -17 47 -19 204 -3
223 19 23 89 23 108 0z m-5453 -48 c-9 -63 -12 -68 -37 -68 -22 0 -53 58 -44
82 6 16 42 35 69 37 17 1 18 -4 12 -51z m878 -1 c48 -63 23 -148 -33 -117 -11
5 -33 10 -50 10 -31 0 -49 14 -31 25 5 3 10 26 10 50 0 31 5 47 18 54 32 19
60 12 86 -22z m2374 5 c-10 -2 -18 -7 -18 -12 0 -5 -3 -16 -7 -25 -5 -14 -2
-16 15 -10 14 4 22 2 22 -5 0 -7 -14 -10 -37 -8 -33 3 -38 7 -41 30 -4 36 32
62 62 45 19 -10 19 -12 4 -15z m3872 -15 c0 -7 -7 -25 -15 -41 -8 -15 -15 -37
-15 -47 0 -24 -27 -36 -43 -20 -8 8 -8 11 2 11 10 0 12 11 8 40 -4 34 -1 43
20 60 26 20 43 19 43 -3z m-4659 -24 c12 -16 12 -17 -2 -6 -9 7 -20 9 -24 5
-5 -4 -5 -1 -1 6 9 16 11 15 27 -5z m-49 -7 c10 6 11 4 0 -7 -10 -11 -15 -10
-30 6 -15 17 -15 18 0 6 9 -7 23 -9 30 -5z m2115 -2 c6 -17 -33 -170 -50 -191
-13 -18 -64 -16 -70 1 -3 8 1 20 9 27 12 9 14 24 8 65 -6 50 -4 55 24 84 33
33 69 39 79 14z m1659 -11 c-10 -10 -19 5 -10 18 6 11 8 11 12 0 2 -7 1 -15
-2 -18z m50 0 c-10 -10 -19 5 -10 18 6 11 8 11 12 0 2 -7 1 -15 -2 -18z m483
-27 c12 -12 11 -18 -7 -41 -15 -19 -19 -32 -13 -43 13 -24 -5 -52 -34 -52 -55
0 -91 130 -42 150 27 12 77 4 96 -14z m-444 4 c3 -5 -8 -35 -25 -68 -16 -33
-30 -69 -30 -81 0 -18 -6 -21 -40 -21 -46 0 -51 6 -15 20 32 12 32 34 0 94
-14 26 -23 51 -20 56 7 11 124 10 130 0z m2640 -20 c-4 -11 -9 -32 -11 -47 -3
-15 -14 -43 -24 -63 -10 -19 -21 -43 -24 -52 -15 -50 -58 20 -62 102 -2 30 -8
56 -14 58 -5 2 -10 8 -10 12 0 5 34 9 75 9 71 0 76 -1 70 -19z m-5671 -72 c17
-24 22 -78 7 -78 -6 0 -11 17 -13 38 -2 25 -8 37 -18 37 -11 0 -15 -10 -14
-37 1 -27 -3 -38 -13 -38 -19 0 -12 78 8 91 21 13 26 11 43 -13z m-3210 -72
c-4 -12 -11 -27 -16 -33 -12 -15 -96 -17 -117 -4 -24 15 -4 39 37 46 22 3 48
15 58 26 17 19 19 19 31 3 7 -10 10 -27 7 -38z m7030 4 c1 -25 6 -36 19 -38
14 -3 17 4 17 38 0 29 4 40 13 37 13 -4 11 -51 -4 -79 -6 -10 -18 -18 -28 -18
-19 0 -26 11 -41 62 -9 28 -3 41 14 35 5 -2 10 -19 10 -37z m-6230 8 c3 -13 6
-37 6 -55 0 -17 5 -33 11 -35 9 -3 9 -10 0 -26 -10 -19 -9 -22 9 -22 11 0 20
-4 20 -10 0 -5 -10 -10 -23 -10 -28 0 -78 52 -67 69 9 15 2 48 -17 77 -16 25
-9 34 28 34 19 0 28 -6 33 -22z m-423 -8 c24 -11 54 -20 67 -20 12 0 22 -5 22
-11 0 -6 9 -8 20 -4 33 10 99 -5 110 -25 8 -15 2 -21 -38 -40 -26 -12 -59 -31
-74 -41 -14 -11 -42 -19 -61 -19 -20 0 -52 -9 -71 -21 -45 -26 -85 -19 -127
23 -24 25 -29 36 -24 57 8 33 43 71 65 71 9 0 27 11 40 25 13 14 24 25 26 25
1 0 21 -9 45 -20z m5021 -17 c24 -21 23 -33 -2 -33 -15 0 -20 -7 -20 -29 0
-31 -15 -50 -23 -29 -4 10 -7 10 -18 0 -19 -18 4 -31 48 -27 41 4 43 -8 4 -25
-65 -27 -113 52 -81 134 7 20 16 26 41 26 18 0 41 -7 51 -17z m2893 -81 c-8
-19 -15 -36 -15 -38 0 -2 -6 -4 -14 -4 -8 0 -17 11 -20 24 -3 13 -8 31 -12 39
-4 11 4 14 35 14 l40 0 -14 -35z m-5097 -7 c2 -11 6 -27 9 -35 11 -28 10 -50
-3 -50 -19 0 -28 20 -25 59 1 19 -4 38 -11 43 -9 7 -7 8 7 6 11 -2 21 -12 23
-23z m1319 -13 c12 -14 11 -37 -2 -124 -4 -26 -3 -27 53 -30 l57 -3 5 -38 5
-39 29 31 c55 57 173 65 248 16 75 -50 73 -33 76 -572 l3 -483 34 0 35 0 0
-370 c0 -203 3 -370 8 -370 4 1 52 24 107 53 l100 52 -1 125 c-1 107 -4 131
-23 167 -28 56 -29 113 -1 113 13 0 20 7 20 20 0 18 -7 20 -70 20 l-70 0 0
640 0 640 198 0 c108 0 214 -5 235 -11 45 -12 100 -58 116 -97 8 -20 11 -173
9 -547 l-3 -520 -23 -33 c-13 -18 -41 -41 -63 -52 l-39 -20 0 -703 0 -702 -24
-50 c-25 -54 -71 -100 -123 -122 -24 -9 -88 -13 -240 -13 -235 0 -259 6 -326
75 -45 46 -67 110 -67 194 l0 66 135 68 c74 37 137 67 140 67 3 0 5 -45 5
-100 l0 -100 111 0 110 0 -4 163 c-3 89 -5 213 -5 275 -1 61 -4 112 -7 112 -4
0 -112 -54 -240 -120 -127 -66 -235 -120 -239 -120 -3 0 -6 23 -6 50 0 28 -2
50 -5 50 -12 0 -55 -24 -55 -32 0 -4 -9 -8 -20 -8 -11 0 -20 -6 -20 -14 0 -8
-14 -23 -30 -33 -22 -13 -34 -30 -42 -61 -8 -32 -16 -43 -34 -47 -78 -16 -74
-13 -64 -41 17 -44 12 -175 -7 -196 -21 -24 -124 -26 -147 -2 -21 21 -21 153
-1 213 15 42 13 81 -5 81 -16 0 -50 68 -50 100 0 22 -8 40 -25 56 -32 29 -39
116 -11 139 16 13 36 84 36 127 0 20 10 50 23 69 19 28 22 40 14 63 -6 19 -6
41 2 66 6 20 11 54 11 75 0 40 39 105 64 105 7 0 34 14 60 32 40 26 52 30 74
22 24 -8 28 -16 33 -64 28 -256 34 -290 66 -393 13 -42 20 -50 67 -72 29 -14
56 -25 59 -25 4 0 7 249 7 554 0 545 0 554 -20 559 -15 4 -20 14 -20 42 0 28
5 38 20 42 19 5 20 14 20 319 l0 314 -75 0 -75 0 0 -540 0 -540 -75 0 -75 0 0
-27 c-1 -16 -7 -52 -13 -82 -10 -40 -19 -56 -35 -62 -29 -11 -42 14 -42 80 0
28 -5 51 -12 53 -12 4 17 57 39 71 19 12 16 64 -6 84 -17 16 -19 35 -19 208 0
145 3 197 14 219 18 38 18 66 -1 80 -18 13 -19 41 -15 232 3 122 1 144 -15
168 -16 24 -17 32 -6 60 7 17 17 46 21 65 8 31 6 34 -21 44 -16 6 -29 17 -29
24 0 8 -12 13 -30 13 l-30 0 0 -615 0 -615 -106 0 c-105 0 -106 0 -100 23 3
12 6 300 6 640 l0 617 90 0 c79 0 91 2 100 20 6 11 20 20 31 20 22 0 39 35 39
80 0 44 29 59 103 53 39 -3 67 -11 74 -21z m2156 -45 c-2 -4 -15 -5 -28 -3
-18 3 -26 -1 -31 -16 -4 -13 -1 -24 7 -29 20 -13 39 -11 39 4 0 8 3 7 10 -3 7
-11 3 -21 -15 -37 -27 -26 -35 -28 -35 -12 0 6 -9 22 -20 36 -23 29 -20 51 13
94 l19 27 23 -26 c13 -15 21 -30 18 -35z m2171 38 c21 -33 20 -84 -4 -115
l-19 -25 -24 23 c-20 19 -25 32 -23 65 1 22 8 43 14 45 7 2 12 10 12 18 0 22
26 16 44 -11z m-923 -45 c4 -14 7 -42 8 -62 l1 -38 156 0 c149 0 157 1 175 23
14 16 19 18 20 7 1 -8 2 -20 3 -26 0 -5 18 -25 39 -44 70 -61 67 -34 67 -602
0 -492 -1 -514 -20 -545 -19 -31 -19 -57 -22 -770 -3 -736 -3 -738 -25 -779
-28 -53 -92 -110 -140 -124 -25 -7 -112 -10 -250 -8 l-211 3 -43 30 c-64 45
-98 99 -110 175 -6 40 -8 355 -7 815 l3 750 134 3 134 3 -6 152 c-3 84 -10
166 -15 184 -8 25 -7 35 4 44 11 9 14 77 14 393 -1 225 3 393 9 408 17 45 70
50 82 8z m-1757 1 c3 -5 -3 -11 -15 -14 -16 -4 -18 -3 -8 9 13 16 16 17 23 5z
m1300 -27 c32 -39 29 -53 -9 -36 -43 20 -133 15 -162 -8 -27 -21 -47 -26 -41
-11 2 5 19 27 38 50 33 39 38 41 90 40 50 0 58 -3 84 -35z m-7471 -58 c3 -8
16 -16 29 -18 l23 -3 3 -542 2 -543 75 0 75 0 0 545 0 545 99 0 98 0 7 -37 c3
-21 6 -265 6 -543 l0 -506 43 1 c23 1 57 3 76 3 l33 2 -4 110 c-2 66 -8 114
-15 121 -9 9 -9 18 -2 32 6 10 8 33 5 51 -3 17 -10 56 -15 86 -16 94 -14 186
7 206 15 15 17 44 20 246 l3 228 98 0 98 0 6 -41 c6 -48 5 -47 40 -51 35 -5
31 -23 -5 -22 -30 2 -38 -15 -38 -88 0 -36 4 -48 15 -48 9 0 15 -9 15 -22 0
-16 -3 -19 -9 -10 -9 15 -24 -229 -15 -253 4 -8 14 -15 24 -15 11 0 22 -5 25
-10 4 -6 10 -8 15 -5 4 2 13 -8 20 -25 19 -45 2 -83 -43 -94 -23 -6 -37 -16
-41 -30 -7 -27 -6 -122 3 -160 5 -26 7 -28 20 -13 17 21 50 22 58 2 8 -24 -5
-31 -20 -11 -12 17 -14 17 -37 -2 -22 -18 -25 -28 -25 -83 1 -40 5 -64 13 -67
7 -2 12 -13 12 -23 0 -11 5 -29 10 -40 8 -15 7 -19 -4 -19 -8 0 -17 -6 -19
-12 -3 -7 -3 5 -1 27 3 33 2 35 -5 15 -5 -14 -10 -41 -10 -60 -1 -28 -9 -42
-41 -68 -22 -18 -53 -38 -70 -43 l-30 -11 0 -794 0 -794 -140 0 -140 0 -1 178
c-1 97 -4 265 -8 373 l-6 197 -102 -55 -103 -55 0 -319 0 -319 -140 0 -140 0
0 795 c0 684 2 801 15 832 13 31 13 40 0 80 -13 37 -15 131 -15 594 l0 551 23
24 c17 19 32 24 73 24 36 0 54 -4 57 -14z m812 -36 c0 -13 -6 -25 -12 -27 -9
-3 -13 6 -13 27 0 21 4 30 13 28 6 -3 12 -15 12 -28z m2079 -70 c4 -49 5 -94
1 -100 -3 -6 -49 -10 -106 -10 l-99 0 0 -480 c0 -264 3 -480 6 -480 3 0 19 11
35 25 30 24 86 45 125 45 11 0 30 14 42 30 34 45 85 41 111 -8 12 -23 17 -24
109 -22 54 1 118 2 145 1 l47 -1 0 -135 0 -135 -150 0 -151 0 6 -34 7 -33 -51
5 -51 5 0 -118 c0 -112 1 -117 20 -112 11 3 22 2 25 -3 3 -4 -6 -11 -20 -14
-26 -7 -33 -30 -14 -42 8 -4 8 -9 0 -17 -11 -11 -16 -107 -5 -107 3 0 88 43
188 95 101 52 186 95 190 95 3 0 5 -70 4 -156 l-3 -157 -192 -100 c-146 -76
-193 -105 -193 -119 0 -13 7 -18 23 -17 37 3 57 0 57 -11 0 -5 -7 -10 -16 -10
-11 0 -15 -8 -12 -27 3 -25 0 -28 -24 -25 l-28 3 0 -90 0 -90 55 6 c51 5 55 4
55 -16 0 -21 -14 -29 -24 -12 -3 5 -24 9 -46 9 -29 1 -40 -3 -40 -14 0 -8 5
-12 10 -9 12 7 70 -16 70 -27 0 -5 -9 -8 -20 -8 -11 0 -20 5 -20 10 0 6 -9 10
-20 10 -16 0 -20 -7 -20 -34 0 -27 4 -34 18 -31 9 2 30 4 45 4 16 1 26 5 22
11 -3 6 1 10 9 10 9 0 16 -9 16 -20 0 -18 -7 -20 -55 -20 -42 0 -55 -3 -55
-15 0 -13 28 -15 195 -15 l195 0 0 -135 0 -135 -312 -1 c-172 -1 -305 -3 -295
-6 10 -3 17 -14 17 -29 0 -17 5 -24 20 -24 20 0 20 -1 4 -32 -9 -18 -22 -36
-29 -40 -7 -4 -10 -19 -7 -33 3 -19 0 -25 -13 -25 -13 0 -16 6 -12 26 3 16 0
28 -8 31 -9 3 -12 16 -8 38 4 24 -1 45 -16 70 -21 36 -21 39 -21 826 l0 789
-70 0 -70 0 0 540 0 540 -100 0 -100 0 0 100 0 100 299 0 298 0 7 -90z m656
-144 l5 -228 104 231 105 231 108 0 c59 0 108 -3 108 -6 0 -3 -52 -118 -115
-254 -63 -137 -115 -255 -115 -262 0 -8 66 -175 146 -373 80 -198 149 -366
151 -373 5 -11 -17 -13 -115 -10 -126 3 -157 13 -133 41 12 15 -17 100 -123
362 l-44 109 -41 -82 -41 -82 0 -175 0 -175 -105 0 -105 0 0 633 c0 349 3 637
7 641 4 4 50 5 103 4 l95 -3 5 -229z m3117 211 c18 -9 45 -34 60 -54 l28 -36
3 -488 3 -488 34 -11 c19 -6 50 -22 69 -35 l35 -24 3 518 3 517 27 42 c47 71
68 77 276 80 l182 4 0 -101 0 -101 -140 0 -140 0 0 -165 c0 -91 2 -165 5 -165
3 0 64 29 135 65 71 36 132 65 135 65 3 0 4 -50 3 -111 l-3 -112 -137 -71
-138 -71 0 -257 0 -258 -75 0 -75 0 0 -705 c0 -773 3 -737 -61 -810 -61 -69
-86 -75 -322 -75 -230 0 -255 5 -315 63 -55 52 -75 102 -80 195 -4 66 -8 82
-21 83 -13 1 -13 2 2 6 14 4 17 16 17 78 0 56 -4 74 -15 79 -20 7 -21 105 0
132 18 24 21 134 3 134 -6 0 -20 7 -30 17 -37 33 -12 233 30 233 7 0 12 13 12
30 0 23 -7 33 -30 45 -63 33 -66 111 -4 147 33 19 34 22 34 83 0 53 -3 65 -21
77 -14 9 -24 30 -29 63 -5 28 -10 57 -12 65 -2 11 7 16 29 18 27 3 34 9 39 30
3 15 12 42 19 59 8 18 12 40 9 48 -6 14 -9 13 -21 -5 -8 -11 -23 -20 -34 -20
-23 0 -25 13 -4 30 18 15 20 71 3 88 -8 8 -5 20 15 46 22 28 27 46 27 90 0 31
-4 56 -9 56 -5 0 -11 23 -13 52 -3 31 -12 56 -22 63 -20 15 -21 25 -2 25 24 0
46 47 46 100 0 44 -2 50 -21 50 -17 0 -19 3 -10 13 18 23 31 144 31 305 0 167
7 198 56 244 43 39 85 47 239 45 111 -2 147 -6 172 -20z m2363 -77 l0 -100
-140 0 -140 0 0 -165 c0 -91 2 -165 5 -165 2 0 16 5 30 12 18 8 25 19 25 39 0
15 -4 31 -10 34 -5 3 -10 11 -10 18 0 8 3 8 12 -1 16 -16 28 -15 28 2 0 8 -7
16 -15 18 -25 5 -2 25 37 31 34 5 39 3 44 -19 3 -13 4 -33 1 -44 -7 -25 -7
-26 63 10 33 17 62 30 65 30 3 0 5 -50 5 -110 l0 -110 -29 -18 c-16 -9 -78
-42 -140 -72 l-111 -55 0 -162 0 -163 140 0 140 0 0 -25 0 -24 36 21 c27 16
59 23 120 26 46 3 84 7 84 10 0 6 -178 1015 -186 1055 l-6 27 101 0 c55 0 102
-4 105 -9 3 -5 35 -181 71 -392 57 -336 75 -425 75 -381 0 31 132 768 139 775
4 4 50 6 102 5 l94 -3 -3 -30 c-2 -16 -43 -259 -93 -538 -49 -279 -89 -513
-89 -520 0 -7 16 -21 35 -31 44 -24 89 -91 105 -154 7 -31 10 -128 8 -278 -3
-192 -7 -235 -21 -269 -26 -58 -72 -101 -159 -148 l-78 -41 0 -223 0 -223
-140 0 -140 0 0 263 c0 254 1 264 24 312 28 60 62 92 156 141 l70 36 0 174 0
174 -105 0 -104 0 -3 -87 -3 -88 -135 -67 c-74 -36 -138 -67 -142 -67 -5 -1
-8 87 -8 194 l0 195 -31 0 c-31 0 -31 -1 -26 -35 5 -30 3 -35 -14 -35 -20 0
-26 15 -9 25 6 3 10 15 10 26 0 16 -7 19 -40 19 -36 0 -40 -2 -40 -25 0 -14 5
-25 10 -25 6 0 10 -4 10 -10 0 -5 -11 -10 -25 -10 -14 0 -25 5 -25 10 0 6 5
10 10 10 6 0 10 11 10 25 l0 25 -115 0 -115 0 0 576 c0 574 0 576 22 615 43
77 76 87 296 88 l162 1 0 -100z m-5820 55 c0 -19 -4 -35 -10 -35 -5 0 -10 16
-10 35 0 19 5 35 10 35 6 0 10 -16 10 -35z m0 -190 c0 -19 -4 -35 -10 -35 -5
0 -10 16 -10 35 0 19 5 35 10 35 6 0 10 -16 10 -35z m2963 28 c-7 -2 -21 -2
-30 0 -10 3 -4 5 12 5 17 0 24 -2 18 -5z m2724 -46 c-5 -13 -47 -14 -87 -1
-24 8 10 24 36 18 12 -3 25 0 29 6 10 16 29 -4 22 -23z m-8086 -104 c-6 -13
-11 -33 -11 -45 0 -12 -3 -19 -6 -16 -3 4 -2 32 2 64 5 44 9 53 16 39 7 -11 7
-25 -1 -42z m2413 -19 c35 -34 10 -84 -42 -84 -14 0 -21 8 -24 29 -9 61 29 93
66 55z m6 -207 c0 -8 -6 -14 -12 -14 -7 0 -19 -2 -27 -4 -7 -2 -15 1 -18 8 -4
10 13 19 45 22 6 0 12 -5 12 -12z m-807 -64 c3 -5 -5 -8 -18 -8 -13 0 -21 3
-18 8 2 4 10 7 18 7 8 0 16 -3 18 -7z m787 -58 c0 -8 7 -30 16 -49 16 -31 16
-36 1 -50 -14 -15 -17 -15 -26 1 -10 17 -10 17 -11 0 0 -16 -2 -17 -15 -4 -12
12 -12 21 -4 47 9 23 9 34 0 43 -18 18 -13 27 14 27 15 0 25 -6 25 -15z m5641
-52 c13 -16 12 -17 -3 -4 -10 7 -18 15 -18 17 0 8 8 3 21 -13z m-1450 -45 c13
-15 19 -37 19 -72 0 -60 -10 -126 -19 -126 -13 0 -63 204 -53 215 12 11 36 4
53 -17z m1469 10 c0 -4 -18 -8 -40 -8 -22 0 -40 3 -40 8 0 4 18 7 40 7 22 1
40 -3 40 -7z m-5635 -117 c3 -5 1 -13 -5 -16 -6 -4 -10 -21 -8 -38 2 -24 -1
-32 -16 -35 -11 -2 -26 4 -33 14 -14 19 -18 66 -6 77 10 10 61 8 68 -2z m5635
-41 c11 -7 5 -8 -18 -4 -24 5 -38 2 -52 -11 -24 -21 -27 -13 -4 9 17 18 52 21
74 6z m-83 -55 c0 -8 -4 -12 -9 -9 -4 3 -8 9 -8 15 0 5 4 9 8 9 5 0 9 -7 9
-15z m954 -72 c9 -28 7 -38 -10 -62 -18 -25 -19 -30 -6 -41 8 -7 15 -19 15
-28 0 -12 -5 -11 -23 6 l-23 22 16 92 c8 51 16 82 18 68 2 -14 8 -40 13 -57z
m-865 10 c-11 -11 -17 4 -9 23 7 18 8 18 11 1 2 -10 1 -21 -2 -24z m-33 0 c-7
-2 -19 -2 -25 0 -7 3 -2 5 12 5 14 0 19 -2 13 -5z m-1453 -40 c-1 -27 -57 -57
-85 -47 -29 12 -9 39 35 47 42 7 50 7 50 0z m-6520 -90 c0 -7 -11 -13 -24 -13
-21 0 -24 4 -21 28 2 15 4 32 5 37 1 14 39 -37 40 -52z m2984 -153 c42 -16 33
-40 -14 -40 -33 0 -40 3 -40 19 0 11 6 22 13 24 6 3 13 6 14 6 1 1 13 -3 27
-9z m-2999 -15 c19 -15 19 -16 0 -48 -10 -17 -19 -32 -19 -32 0 0 6 -10 12
-21 15 -29 -5 -57 -38 -52 -37 5 -79 88 -45 88 8 0 15 4 15 9 0 5 -7 14 -15
21 -20 17 -19 23 8 36 32 16 59 16 82 -1z m1361 -55 c-15 -39 -15 -43 1 -71
13 -22 15 -34 7 -47 -26 -41 -68 -1 -44 43 11 21 11 32 2 59 -17 47 -15 64 11
68 35 6 41 -7 23 -52z m6608 -52 c9 -12 16 -37 16 -54 0 -18 6 -35 13 -38 10
-5 10 -7 0 -12 -18 -8 -16 -34 1 -34 8 0 18 -4 21 -10 3 -5 -3 -10 -15 -10
-12 0 -25 10 -32 25 -6 14 -18 25 -27 25 -14 1 -14 2 2 14 25 20 24 86 -3 93
-23 6 -27 23 -6 23 8 0 22 -10 30 -22z m-5600 -30 c9 -36 8 -38 -24 -38 -16 0
-30 4 -30 9 0 5 8 8 18 7 12 -1 17 6 16 22 0 12 3 22 7 22 3 0 9 -10 13 -22z
m646 -16 c25 -20 30 -63 10 -87 -17 -21 -86 -20 -94 1 -28 74 28 131 84 86z
m-1632 -129 c-3 -33 -7 -38 -31 -41 -28 -3 -30 0 -41 51 -6 26 -5 27 34 27
l41 0 -3 -37z m767 -13 c-5 -16 -10 -19 -18 -11 -7 7 -6 15 3 26 17 20 24 13
15 -15z m-2171 -2 c19 -27 13 -37 -19 -30 -18 3 -25 11 -25 28 0 30 24 31 44
2z m2176 -71 c0 -20 0 -20 -14 -2 -8 11 -12 23 -9 28 8 13 23 -3 23 -26z m846
3 c11 -51 0 -100 -21 -100 -12 0 -15 13 -15 65 0 52 3 65 15 65 9 0 18 -12 21
-30z m-3016 -24 c0 -14 -34 -28 -44 -18 -5 4 21 23 42 31 1 1 2 -5 2 -13z
m1388 -18 c-2 -25 -8 -34 -25 -36 -17 -3 -24 3 -29 22 -8 33 1 46 32 46 22 0
25 -4 22 -32z m6632 -79 c23 -6 23 -7 3 -8 -12 -1 -26 -7 -30 -14 -6 -10 -12
-9 -25 5 -15 15 -15 18 -3 18 11 0 15 14 17 58 l1 57 6 -55 c5 -47 9 -55 31
-61z m-6629 -31 c2 -25 -2 -54 -13 -81 -8 -21 -8 -31 1 -40 17 -17 14 -77 -5
-77 -46 0 -71 44 -39 70 17 14 21 60 5 60 -5 0 -10 18 -10 40 0 38 2 40 30 40
17 0 31 -6 31 -12z m1641 -70 c-6 -13 -12 -32 -14 -42 -4 -23 -27 -33 -31 -14
-2 7 -9 28 -15 46 -9 29 -8 36 10 54 l20 20 21 -21 c17 -17 19 -24 9 -43z
m4958 -88 c0 -15 6 -30 13 -33 10 -4 10 -7 0 -18 -7 -7 -13 -28 -13 -45 0 -18
-5 -36 -11 -40 -7 -4 -9 0 -5 14 9 28 10 115 1 142 -5 15 -4 20 4 16 6 -4 11
-20 11 -36z m-4947 -71 c-4 -63 -23 -109 -49 -115 -14 -4 -27 -4 -29 -2 -11
11 10 113 27 130 26 26 53 19 51 -13z m5818 -6 c4 -43 -4 -89 -17 -103 -12
-12 -14 -9 -14 26 0 22 -5 45 -11 51 -7 7 -5 15 6 27 21 21 35 20 36 -1z
m-7473 -25 c15 -15 16 -68 2 -69 -5 -1 -19 -1 -30 -1 -37 0 -40 2 -40 30 0 31
16 52 40 52 9 0 21 -5 28 -12z m-1096 -43 c16 -21 6 -30 -37 -33 -38 -2 -45 0
-45 16 0 10 2 21 4 23 9 9 71 4 78 -6z m-302 -56 c0 -13 -21 -22 -31 -12 -4 4
-6 19 -2 32 6 23 7 23 20 6 7 -11 13 -22 13 -26z m1366 -7 c15 -10 37 -79 29
-92 -18 -30 -55 10 -55 61 0 39 5 45 26 31z m814 -2 c0 -5 -5 -10 -11 -10 -5
0 -7 5 -4 10 3 6 8 10 11 10 2 0 4 -4 4 -10z m5880 -2 c0 -4 -5 -8 -12 -8 -9
0 -9 -3 0 -12 17 -17 15 -33 -2 -19 -11 10 -17 7 -30 -11 -21 -30 -20 -48 3
-48 11 0 23 -4 26 -10 3 -5 0 -10 -9 -10 -31 0 -46 13 -46 40 0 16 -4 32 -10
35 -14 9 -12 42 3 48 20 7 77 4 77 -5z m-4996 -80 c-2 -47 -18 -68 -55 -68
-34 0 -35 2 -44 63 l-7 48 53 -3 54 -3 -1 -37z m5823 -39 c16 0 15 -1 -2 -8
-15 -6 -22 -20 -26 -57 l-6 -49 -1 53 c-2 42 -5 52 -19 53 -17 1 -17 2 0 6 9
2 17 14 18 26 l0 22 9 -22 c5 -13 17 -23 27 -24z m-8547 -4 c0 -7 -16 -44 -35
-81 -19 -38 -35 -77 -35 -86 0 -31 -24 -19 -42 21 -10 20 -18 45 -18 53 0 9
-6 34 -14 56 -8 22 -12 43 -9 45 3 3 38 5 79 5 53 0 74 -4 74 -13z m1048 -44
c8 -24 7 -32 -7 -45 -13 -12 -20 -13 -29 -4 -15 15 -15 20 -2 52 13 34 26 33
38 -3z m1668 -83 c3 -5 1 -15 -6 -22 -6 -8 -8 -26 -4 -40 8 -32 -15 -44 -52
-27 -30 13 -38 33 -30 66 10 38 73 54 92 23z m-1676 -28 c13 -24 3 -70 -16
-70 -10 0 -14 13 -14 45 0 48 12 58 30 25z m6679 -17 c-2 -24 -2 -25 -6 -5 -3
16 -11 22 -32 22 -42 0 -43 -9 -10 -54 l31 -41 -32 35 c-58 64 -58 70 0 70 48
0 50 -1 49 -27z m581 -183 l0 -140 -140 0 -140 0 0 140 0 140 140 0 140 0 0
-140z m-625 92 c19 1 37 -1 41 -5 4 -4 -14 -7 -39 -7 -45 0 -47 1 -46 28 2 24
2 25 6 4 4 -20 10 -23 38 -20z m-7708 -69 c1 -21 -3 -33 -11 -33 -7 0 -18 -10
-24 -22 -11 -23 -11 -23 -11 -2 -1 14 -9 24 -23 28 -18 4 -20 8 -11 17 9 9 9
16 2 25 -8 9 -4 21 13 44 l23 31 20 -28 c11 -15 21 -42 22 -60z m2733 42 c5
-13 11 -48 12 -77 3 -57 -7 -66 -58 -54 -21 6 -24 12 -24 56 0 27 4 60 10 74
13 34 47 35 60 1z m-1642 -25 c-2 -7 -10 1 -17 16 -12 27 -11 28 4 12 10 -9
16 -21 13 -28z m7478 31 c-3 -5 -15 -7 -26 -4 -28 7 -25 13 6 13 14 0 23 -4
20 -9z m-7526 -26 c0 -8 -2 -15 -4 -15 -2 0 -6 7 -10 15 -3 8 -1 15 4 15 6 0
10 -7 10 -15z m2319 -81 c12 -15 21 -31 21 -36 0 -6 9 -21 20 -35 11 -14 20
-33 20 -43 0 -9 9 -25 20 -35 15 -13 20 -31 20 -64 -1 -81 -26 -211 -48 -239
-18 -24 -26 -27 -80 -25 -86 2 -116 19 -120 66 -4 43 22 142 40 153 7 5 27 10
46 13 44 8 42 23 -6 39 -51 17 -78 69 -68 134 14 90 89 130 135 72z m5174 -1
c-7 -2 -19 -2 -25 0 -7 3 -2 5 12 5 14 0 19 -2 13 -5z m-799 -29 c28 -11 17
-19 -26 -19 -47 0 -67 -24 -21 -26 l28 -2 -30 -5 -30 -5 30 -7 30 -8 -27 -1
c-30 -1 -35 -10 -16 -29 18 -18 55 -15 67 6 9 15 10 15 11 -5 0 -31 -55 -43
-81 -17 -55 57 -7 145 65 118z m-213 -47 c-13 -13 -26 -3 -16 12 3 6 11 8 17
5 6 -4 6 -10 -1 -17z m-4782 -83 c12 -40 12 -47 -3 -62 -12 -12 -22 -14 -43
-6 -24 9 -28 15 -27 47 2 77 52 92 73 21z m5773 -1 c-6 -64 -9 -64 -13 -4 -3
33 0 51 7 51 8 0 10 -16 6 -47z m88 37 c0 -5 -7 -7 -15 -4 -8 4 -15 8 -15 10
0 2 7 4 15 4 8 0 15 -4 15 -10z m-7783 -20 c3 -11 14 -20 24 -20 38 0 38 -116
0 -157 l-20 -21 24 -85 c24 -83 24 -86 8 -116 -19 -33 -63 -44 -63 -16 0 8 -4
15 -9 15 -5 0 -12 7 -15 16 -7 19 13 154 26 171 6 7 5 19 -1 32 -6 11 -11 33
-11 50 0 16 -5 42 -12 55 -9 21 -8 32 8 61 21 40 33 44 41 15z m-787 -13 c0
-9 -10 -12 -30 -9 -23 3 -30 0 -30 -12 0 -9 6 -16 13 -16 7 0 13 -9 13 -20 0
-13 -5 -19 -13 -16 -8 3 -13 -2 -13 -14 0 -25 37 -27 43 -2 3 10 5 6 6 -10 1
-27 -1 -28 -49 -28 -27 0 -50 5 -50 10 0 6 8 10 18 10 14 0 18 7 17 28 -1 19
-7 27 -18 26 -10 -1 -20 8 -23 22 -3 13 -10 24 -15 24 -5 0 -9 5 -9 10 0 6 30
10 70 10 51 0 70 -4 70 -13z m7497 -33 c-3 -3 -12 -4 -19 -1 -8 3 -5 6 6 6 11
1 17 -2 13 -5z m-8686 -25 c16 -16 20 -28 15 -52 -9 -46 -33 -67 -78 -67 -36
0 -38 1 -32 26 4 17 2 29 -7 35 -12 8 -12 10 0 18 9 6 11 18 7 35 -6 25 -5 26
34 26 27 0 47 -7 61 -21z m3035 -3 c19 -20 18 -110 -2 -163 -15 -40 -19 -43
-53 -43 -33 0 -37 4 -53 43 -14 35 -19 118 -9 170 2 13 102 8 117 -7z m4905
-6 c10 0 19 -4 19 -10 0 -5 -9 -10 -20 -10 -14 0 -20 -7 -21 -22 l-2 -23 -4
23 c-3 14 -12 22 -24 22 -10 0 -19 5 -19 10 0 6 9 10 20 10 11 0 20 6 21 13 0
10 2 10 6 0 2 -7 13 -13 24 -13z m1794 -10 c-21 -23 -38 -25 -54 -7 -8 11 -5
13 18 9 16 -2 32 1 35 7 4 6 10 11 13 11 3 0 -2 -9 -12 -20z m-1045 -10 c0 -5
-8 -10 -17 -10 -15 0 -16 2 -3 10 19 12 20 12 20 0z m-3280 -41 c0 -11 -4 -17
-10 -14 -5 3 -10 15 -10 26 0 11 5 17 10 14 6 -3 10 -15 10 -26z m-3170 -4 c9
-11 9 -15 1 -15 -7 0 -9 -9 -5 -26 6 -23 4 -25 -17 -22 -20 2 -25 10 -27 41
-3 31 0 37 16 37 11 0 25 -7 32 -15z m6654 -27 c7 -13 16 -44 19 -70 4 -41 2
-48 -13 -48 -14 0 -16 8 -12 55 4 46 2 56 -13 61 -10 4 -25 3 -34 -3 -20 -12
-27 -79 -10 -99 9 -12 7 -14 -17 -14 -22 0 -25 3 -16 12 7 7 12 30 12 52 0 67
54 101 84 54z m-4979 -48 l0 -55 -54 -3 -54 -3 7 47 c3 26 6 53 6 61 0 11 12
13 48 11 l47 -3 0 -55z m-1156 -6 c27 -35 27 -87 -1 -124 -27 -37 -33 -37 -63
-4 -32 34 -33 84 -3 124 27 37 41 38 67 4z m3456 6 c8 -13 -5 -13 -25 0 -13 8
-13 10 2 10 9 0 20 -4 23 -10z m1705 -49 c0 -15 5 -32 12 -39 8 -8 8 -15 0
-24 -5 -7 -12 -26 -14 -42 -1 -16 -10 -32 -18 -34 -13 -4 -13 -3 -2 11 16 19
18 140 3 145 -6 2 -9 8 -5 13 10 16 24 -1 24 -30z m-2491 3 c2 -2 -14 -4 -37
-4 -23 0 -42 4 -42 9 0 9 69 4 79 -5z m4283 9 c-12 -2 -27 -13 -32 -24 -9 -17
-7 -19 17 -20 l28 -2 -28 -4 c-15 -2 -25 -9 -22 -14 4 -5 -1 -9 -10 -9 -14 0
-16 6 -11 28 8 32 32 53 60 51 19 -2 19 -2 -2 -6z m-8542 -24 c0 -4 -6 -9 -12
-12 -10 -3 -10 -7 1 -20 9 -11 10 -17 2 -17 -6 0 -11 6 -11 13 0 6 -14 -4 -31
-23 -24 -28 -29 -31 -24 -12 4 13 2 22 -4 22 -15 0 -14 47 2 53 19 7 77 4 77
-4z m1068 -23 c4 -36 -11 -54 -33 -36 -15 13 -20 51 -8 64 15 15 38 0 41 -28z
m4025 -9 c22 -35 21 -37 -3 -37 -17 0 -19 5 -14 25 5 22 3 25 -22 25 -43 0
-61 -14 -45 -34 12 -14 10 -16 -14 -16 -14 0 -25 3 -23 8 28 58 30 59 66 58
29 -1 41 -7 55 -29z m-3243 -20 c21 -11 26 -22 32 -77 9 -78 -5 -100 -61 -100
-87 1 -132 101 -72 161 32 31 61 36 101 16z m6698 -27 c19 0 31 -4 27 -10 -12
-20 -64 -11 -76 13 -9 18 -9 20 2 10 7 -7 28 -13 47 -13z m-9708 -32 c0 -6 -7
-5 -15 2 -13 10 -19 9 -35 -5 -20 -18 -21 -18 -38 -1 -16 16 -16 17 9 11 17
-4 30 -1 39 9 10 13 16 14 26 5 8 -6 14 -16 14 -21z m3872 15 c23 -21 22 -52
-2 -82 l-20 -23 -20 23 c-24 29 -25 43 -4 74 19 30 22 30 46 8z m-2732 -13 c0
-5 -9 -10 -19 -10 -11 0 -23 5 -26 10 -4 6 5 10 19 10 14 0 26 -4 26 -10z
m7700 -20 c12 -12 20 -33 20 -53 0 -18 5 -38 12 -45 9 -9 9 -12 0 -12 -20 0
-13 -32 8 -37 28 -8 25 -21 -4 -16 -13 3 -29 16 -35 29 -6 13 -16 24 -23 24
-8 0 -6 5 5 11 26 15 24 89 -3 96 -11 3 -20 9 -20 14 0 15 19 10 40 -11z
m-4367 -40 c6 -16 14 -30 18 -30 4 0 10 -16 14 -36 5 -31 2 -41 -21 -65 -34
-35 -37 -35 -69 -4 -34 35 -34 85 1 131 32 42 43 43 57 4z m-2245 -3 c4 -20
-25 -34 -40 -19 -15 15 -1 44 19 40 10 -2 19 -11 21 -21z m-249 -26 c24 -24
50 -99 58 -163 4 -37 1 -54 -17 -82 -20 -33 -21 -41 -11 -104 5 -37 13 -93 16
-124 6 -56 6 -57 -24 -73 -21 -10 -31 -12 -31 -4 0 7 -9 9 -23 5 -33 -8 -47
21 -41 85 3 30 7 72 8 94 2 22 6 47 10 57 4 9 0 37 -8 62 -28 83 -14 262 20
249 8 -3 14 0 14 6 0 16 7 14 29 -8z m6694 -1 c3 -11 1 -18 -4 -14 -5 3 -9 12
-9 20 0 20 7 17 13 -6z m-5881 -8 c5 -5 10 -36 12 -70 5 -86 -10 -106 -77 -99
-62 5 -73 19 -82 99 -7 62 -4 72 30 81 26 7 107 -1 117 -11z m6898 -7 c0 -19
5 -25 23 -25 19 0 22 -6 24 -42 1 -24 4 -56 5 -72 3 -25 -1 -30 -27 -37 -57
-16 -65 -6 -60 73 3 39 10 77 16 84 6 8 9 21 5 29 -3 8 -1 15 4 15 6 0 10 -11
10 -25z m-3434 -41 c3 -12 4 -36 2 -55 -3 -33 -4 -34 -52 -37 -27 -2 -53 1
-58 6 -6 6 -7 31 -3 59 l6 48 50 0 c42 0 51 -3 55 -21z m-2381 -36 c10 -29 23
-59 28 -66 16 -20 -8 -31 -62 -29 -50 2 -49 0 -33 72 21 92 40 98 67 23z
m-1644 15 c13 -35 5 -53 -24 -53 -30 0 -38 8 -27 29 5 9 11 24 14 34 8 25 25
21 37 -10z m5728 -4 c19 -18 22 -28 16 -58 -9 -48 -39 -72 -90 -69 -39 3 -40
4 -46 46 -3 24 -1 46 4 49 5 3 6 16 3 29 -6 23 -4 24 42 24 35 0 54 -6 71 -21z
m-8006 -8 c-2 -10 8 -43 24 -72 38 -73 38 -71 18 -67 -11 2 -19 14 -21 32 -2
16 -8 34 -13 39 -16 16 -42 -22 -36 -50 4 -15 1 -23 -8 -23 -25 0 -25 11 0 55
29 52 27 75 -7 92 -25 12 -24 13 12 13 30 0 35 -3 31 -19z m1207 -6 c0 -14 -4
-25 -10 -25 -5 0 -10 7 -10 15 0 10 -9 15 -27 14 -16 0 -22 -3 -15 -6 6 -2 12
-9 12 -15 0 -5 9 -21 20 -35 11 -14 20 -34 20 -44 0 -15 -8 -19 -40 -19 -46 0
-60 18 -40 54 9 18 9 29 1 44 -19 36 -13 42 39 42 47 0 50 -2 50 -25z m7516
-42 c-10 -26 -29 1 -21 28 7 20 8 21 17 5 5 -9 7 -24 4 -33z m-5655 17 c10 -6
26 -24 34 -40 18 -35 20 -124 3 -137 -7 -6 -40 -13 -74 -17 -52 -6 -64 -4 -87
14 -15 12 -27 31 -27 44 0 40 30 125 48 135 22 14 78 14 103 1z m1582 -155 c1
-29 -6 -64 -16 -84 -9 -19 -17 -40 -17 -48 0 -7 -15 -22 -32 -33 -26 -16 -44
-19 -87 -15 -100 10 -116 31 -88 118 46 145 75 177 111 126 15 -22 15 -22 58
15 l43 37 14 -33 c7 -18 14 -55 14 -83z m4067 35 c0 -16 -3 -31 -7 -33 -5 -3
-8 12 -8 33 0 21 3 36 8 33 4 -2 7 -17 7 -33z m190 2 c0 -15 7 -40 15 -55 13
-25 12 -30 -7 -52 -26 -30 -38 -32 -38 -5 0 11 -7 20 -15 20 -19 0 -19 10 0
24 9 6 17 29 19 51 2 22 4 44 5 48 3 20 21 -7 21 -31z m-3736 -4 c11 -42 7
-88 -9 -94 -23 -9 -45 15 -45 48 0 59 41 93 54 46z m2353 10 c-2 -7 -11 -12
-18 -11 -8 2 -5 -3 5 -10 30 -19 66 -58 66 -72 0 -7 16 -29 36 -49 l37 -37 -5
-77 c-5 -93 -33 -159 -78 -185 -17 -10 -38 -27 -48 -37 -12 -13 -42 -21 -114
-29 -87 -10 -116 -9 -185 5 -29 6 -31 54 -4 92 10 15 20 42 23 60 4 29 1 35
-19 43 -20 7 -24 15 -21 40 2 18 10 35 18 39 8 4 29 14 46 22 28 14 33 14 55
-3 14 -10 44 -19 67 -20 36 -3 42 -6 42 -26 0 -19 -5 -23 -34 -23 -45 0 -55
-15 -44 -67 11 -50 26 -54 62 -18 14 14 34 25 46 25 11 0 30 11 41 24 12 14
34 30 49 36 24 10 29 20 35 60 4 27 3 56 -2 65 -8 14 -12 14 -35 -5 -30 -23
-61 -26 -76 -7 -6 7 -18 34 -27 60 -16 49 -13 68 21 101 19 19 68 22 61 4z
m-6348 -12 c9 -10 5 -13 -18 -12 -22 1 -27 4 -19 14 13 16 23 15 37 -2z m8587
-8 c-2 -13 2 -30 9 -38 7 -8 23 -48 35 -88 17 -58 19 -76 9 -88 -14 -17 -6
-127 11 -132 5 -2 10 -33 10 -73 0 -65 -1 -69 -25 -75 -42 -10 -47 -34 -24
-109 11 -37 18 -69 15 -72 -3 -3 -1 -13 3 -22 6 -10 4 -31 -4 -55 -8 -22 -11
-44 -8 -49 9 -16 32 -208 26 -223 -6 -16 -18 -18 -83 -14 -52 2 -81 23 -62 42
15 15 16 54 2 63 -6 3 -7 18 -4 32 4 14 8 85 10 157 3 152 6 186 17 186 14 0
7 51 -8 56 -13 5 -15 21 -9 98 4 50 6 143 6 206 -1 87 2 120 14 138 8 13 13
29 11 35 -7 20 12 47 33 47 15 0 19 -6 16 -22z m-6945 -18 c14 -8 19 -21 19
-48 0 -21 -4 -42 -9 -47 -5 -6 -11 -21 -13 -34 -4 -31 -28 -46 -60 -38 -27 7
-58 66 -58 111 0 48 73 81 121 56z m1426 -26 c13 -78 14 -108 2 -130 -15 -29
-32 -30 -70 -3 -25 18 -29 27 -29 70 0 62 34 104 71 91 12 -5 24 -17 26 -28z
m-309 -26 c-3 -42 -4 -43 -38 -43 -34 0 -35 1 -38 43 l-3 42 41 0 41 0 -3 -42z
m-2744 -24 c28 -11 17 -24 -14 -18 -20 4 -34 1 -45 -10 -15 -15 -14 -16 12
-17 l28 -1 -30 -8 -30 -8 35 -2 c19 -1 27 -4 18 -7 -10 -2 -15 -10 -11 -19 6
-17 30 -18 36 -1 4 9 8 8 16 -3 21 -30 12 -40 -33 -40 -36 0 -48 5 -65 26 -27
34 -27 62 1 91 21 23 51 29 82 17z m7544 -26 c2 -19 -3 -30 -18 -38 -28 -15
-40 -5 -40 36 0 33 2 35 28 32 21 -2 28 -9 30 -30z m-5681 -5 c16 -21 53 -141
53 -171 0 -25 -35 -52 -69 -52 -14 0 -37 14 -58 37 -30 32 -34 41 -31 77 3 23
1 54 -3 70 -5 17 -4 37 2 48 9 17 18 19 52 15 23 -3 47 -14 54 -24z m2761 -42
c-3 -25 -6 -26 -63 -26 l-60 0 2 34 c1 36 22 66 30 44 7 -19 40 -16 48 5 6 15
8 15 26 -7 11 -14 19 -36 17 -50z m461 53 c38 -8 55 -35 46 -75 -8 -36 -21
-37 -51 -4 -13 14 -34 25 -48 25 -55 0 -77 32 -33 50 27 11 46 12 86 4z m1719
-6 c7 -7 12 -17 12 -24 0 -15 -81 -26 -97 -12 -20 16 -16 28 10 28 12 0 29 5
37 10 19 13 24 12 38 -2z m-7941 -34 c2 -6 -10 -8 -32 -6 -30 4 -35 1 -35 -17
0 -12 6 -21 15 -21 8 0 15 -4 15 -10 0 -5 -9 -10 -21 -10 -14 0 -19 -5 -17
-17 3 -13 12 -17 33 -16 27 2 28 1 12 -15 -21 -20 -50 -7 -55 27 -2 11 -8 21
-13 21 -5 0 -9 5 -9 10 0 6 7 10 15 10 8 0 15 4 15 9 0 5 -7 16 -15 25 -8 8
-15 17 -15 21 0 11 103 1 107 -11z m5148 -55 c0 -22 -5 -24 -47 -27 -38 -2
-48 0 -48 12 0 10 9 16 24 16 13 0 29 7 36 15 18 21 35 13 35 -16z m-4585 -8
c0 -11 5 -23 10 -26 6 -4 8 -10 5 -15 -3 -5 3 -13 12 -19 16 -9 14 -10 -9 -11
-32 0 -48 24 -41 63 6 31 23 37 23 8z m8298 -8 c19 -19 23 -126 5 -157 -13
-23 -59 -30 -67 -11 -3 8 -2 53 1 100 5 75 8 85 25 85 11 0 27 -8 36 -17z
m-183 -28 c0 -5 -10 -11 -22 -13 -16 -2 -23 2 -23 13 0 11 7 15 23 13 12 -2
22 -7 22 -13z m-4787 -28 c2 -10 1 -25 -2 -34 -6 -14 -10 -13 -29 6 -13 11
-33 21 -45 21 -13 0 -22 6 -22 16 0 24 94 16 98 -9z m-1135 -6 c33 -13 38 -31
31 -111 -5 -52 -12 -74 -31 -94 -28 -30 -71 -35 -79 -8 -4 9 -12 31 -19 47
-10 24 -13 100 -6 148 1 9 40 25 63 26 9 1 28 -3 41 -8z m1487 -72 c0 -42 -24
-59 -84 -59 -91 0 -116 45 -39 70 21 7 49 21 62 32 23 17 25 17 43 2 10 -10
18 -30 18 -45z m263 47 c7 -18 -10 -83 -24 -92 -6 -3 -18 1 -28 10 -16 15 -19
15 -31 1 -11 -14 -14 -14 -25 2 -21 31 -27 63 -15 78 17 20 116 21 123 1z
m1275 -2 c12 -8 22 -25 22 -37 0 -23 -19 -83 -33 -104 -4 -7 -17 -38 -27 -69
l-20 -57 31 -46 c26 -39 30 -53 26 -91 -4 -35 -13 -51 -40 -76 -41 -38 -65
-36 -102 8 -36 42 -38 114 -4 156 24 31 24 37 -6 96 -14 27 -25 60 -25 74 0
14 -5 42 -11 63 -10 32 -9 42 4 63 9 13 29 27 44 29 65 10 120 6 141 -9z
m2132 4 c0 -7 12 -35 25 -63 28 -57 32 -95 10 -95 -8 0 -15 -7 -15 -15 0 -8
-7 -15 -16 -15 -8 0 -12 5 -9 10 3 6 1 10 -5 10 -6 0 -9 4 -6 9 3 5 -9 8 -27
7 -35 -1 -36 1 -16 72 10 36 9 45 -5 61 -24 26 -20 31 24 31 25 0 40 -5 40
-12z m763 -40 c21 -25 23 -36 15 -58 -8 -26 -16 -29 -61 -21 -6 1 -4 94 2 109
4 10 23 -3 44 -30z m-6683 7 c0 -9 -6 -12 -15 -9 -8 4 -15 10 -15 15 0 5 7 9
15 9 8 0 15 -7 15 -15z m4231 -4 c21 -17 24 -28 24 -89 0 -55 -4 -75 -19 -91
-54 -60 -130 25 -111 125 4 25 16 41 38 54 39 24 39 24 68 1z m-5640 -16 c8 3
22 0 31 -7 15 -12 15 -17 3 -52 -18 -52 -37 -70 -64 -61 -29 9 -49 51 -33 67
7 7 12 19 12 28 0 22 22 43 30 30 4 -6 13 -8 21 -5z m558 -16 c21 -22 39 -104
26 -117 -3 -4 -38 -8 -77 -9 l-71 -2 6 56 c3 31 13 63 23 74 23 25 68 24 93
-2z m791 -15 c0 -8 7 -14 15 -14 8 0 15 7 15 15 0 8 5 15 10 15 6 0 10 -7 10
-15 0 -7 7 -18 15 -23 13 -7 14 -13 4 -38 -6 -16 -17 -51 -24 -79 -9 -40 -16
-51 -34 -53 -40 -6 -52 4 -39 33 8 18 8 31 0 48 -12 25 -13 87 0 87 4 0 8 12
8 26 0 14 4 23 10 19 6 -3 10 -13 10 -21z m1078 -60 c7 -27 16 -58 18 -69 7
-26 -37 -75 -67 -75 -30 0 -69 38 -69 67 0 47 23 118 43 136 17 15 23 16 41 4
11 -8 26 -36 34 -63z m2132 25 c0 -39 0 -39 -40 -39 -34 0 -41 4 -46 25 -8 34
1 53 28 57 46 7 58 -2 58 -43z m-5156 -31 c-3 -4 -13 -4 -23 1 -25 14 -40 0
-34 -32 5 -24 10 -28 30 -24 33 6 37 -6 9 -31 l-24 -20 -26 27 c-33 34 -33 61
-1 100 l26 30 24 -21 c13 -12 22 -25 19 -30z m3884 8 c5 -55 -5 -86 -26 -86
-29 0 -42 21 -42 65 0 46 15 67 45 63 15 -2 21 -12 23 -42z m4820 -38 c4 -33
-13 -68 -33 -68 -8 0 -22 11 -31 25 -15 23 -15 27 0 51 23 34 60 30 64 -8z
m-808 2 c0 -5 -4 -10 -10 -10 -5 0 -10 5 -10 10 0 6 5 10 10 10 6 0 10 -4 10
-10z m1014 -24 c49 -37 50 -80 2 -130 -28 -31 -40 -36 -78 -36 -73 0 -84 19
-77 135 5 64 88 81 153 31z m-8319 -45 c5 -25 -14 -80 -30 -84 -7 -2 -15 104
-9 115 9 15 33 -5 39 -31z m4581 -15 c3 -8 -8 -47 -24 -88 -29 -72 -29 -73
-11 -97 28 -35 25 -85 -5 -105 -24 -15 -26 -14 -45 11 -26 32 -26 49 -2 89 13
22 16 35 9 42 -13 13 -48 144 -42 154 9 15 114 9 120 -6z m-2405 -6 c22 -12
24 -32 7 -60 -10 -15 -10 -22 0 -32 18 -18 14 -46 -8 -53 -32 -10 -77 4 -94
30 -46 70 23 153 95 115z m1436 -10 c26 0 43 -32 43 -80 0 -56 -15 -70 -75
-70 -52 0 -73 15 -81 56 -11 62 28 111 81 99 11 -3 25 -5 32 -5z m3301 -9 c22
-1 23 -4 20 -63 l-3 -63 -59 -3 c-70 -4 -76 2 -76 75 0 56 6 62 65 57 17 -2
40 -3 53 -3z m-6382 -31 c14 -29 29 -80 39 -127 6 -31 5 -33 -22 -33 -18 0
-38 9 -52 24 -20 21 -22 31 -16 74 4 32 3 52 -4 57 -6 3 -11 13 -11 21 0 26
53 13 66 -16z m6828 10 c29 -11 35 -37 10 -47 -13 -5 -15 -15 -9 -49 5 -37 3
-44 -15 -54 -30 -16 -54 -5 -73 36 -21 42 -14 111 12 117 29 8 49 7 75 -3z
m745 -4 c7 -8 11 -27 9 -43 -4 -39 -48 -40 -62 -1 -16 44 25 77 53 44z m-5683
-102 c3 -19 4 -44 0 -57 -8 -32 -47 -80 -56 -70 -4 4 -11 47 -14 95 -6 78 -5
87 11 90 26 6 52 -19 59 -58z m-1047 -8 c10 -11 7 -14 -13 -12 -18 1 -22 4
-14 14 13 15 13 15 27 -2z m-1979 -41 c25 -30 -16 -79 -46 -54 -15 12 -19 51
-7 62 11 12 40 8 53 -8z m3555 -50 c0 -41 -3 -50 -19 -53 -24 -5 -36 14 -36
59 0 42 7 51 35 47 17 -3 20 -10 20 -53z m5153 32 c4 -20 -25 -34 -40 -19 -15
15 -1 44 19 40 10 -2 19 -11 21 -21z m196 -13 c9 -8 16 -26 16 -40 0 -18 -7
-25 -27 -30 -16 -3 -34 -7 -41 -10 -30 -9 -68 66 -45 89 13 13 82 7 97 -9z
m-4324 -4 c79 -7 111 -15 132 -30 15 -11 36 -20 47 -20 38 0 92 -73 115 -156
35 -130 8 -352 -52 -434 -12 -16 -22 -33 -22 -38 0 -15 -119 -110 -190 -151
-59 -35 -72 -38 -143 -40 -59 -2 -85 2 -104 15 -14 9 -38 20 -52 24 -27 7 -27
7 -27 -39 1 -26 -7 -63 -16 -82 -9 -19 -19 -41 -22 -50 -6 -22 -48 -32 -81
-19 -34 13 -69 92 -60 137 4 24 15 37 41 49 47 22 49 30 13 45 -50 20 -67 46
-80 122 -11 67 -10 74 10 113 22 40 22 44 7 88 -20 59 -20 99 0 137 14 28 14
75 -1 159 -2 9 -6 41 -10 72 -10 81 3 88 180 92 75 2 139 7 142 10 8 8 48 7
173 -4z m-1819 -60 c14 -8 19 -21 19 -55 0 -24 5 -47 10 -50 16 -10 11 -25 -8
-25 -15 0 -17 9 -17 58 0 57 0 57 -30 57 -30 0 -30 0 -30 -57 0 -39 -3 -58
-12 -58 -6 0 -15 5 -18 10 -3 6 -1 10 4 10 6 0 11 20 11 44 0 27 6 51 16 60
18 19 28 20 55 6z m3943 -37 c18 -131 18 -171 -1 -200 -10 -15 -24 -33 -32
-39 -8 -6 -11 -16 -7 -22 4 -8 2 -10 -7 -6 -17 6 -30 55 -27 102 1 18 -5 44
-14 57 -9 13 -16 32 -16 42 0 20 36 47 50 38 6 -4 10 3 10 14 0 32 -3 36 -29
36 -13 0 -26 6 -28 13 -3 8 10 12 45 12 l50 0 6 -47z m856 32 c13 -8 13 -9
-23 -109 -14 -38 -23 -75 -20 -82 2 -7 20 -25 39 -39 25 -19 34 -34 34 -55 0
-42 -17 -46 -51 -14 l-30 29 14 -34 c9 -21 12 -50 9 -74 -5 -40 -36 -87 -56
-86 -19 0 -58 59 -52 75 6 16 -10 54 -28 66 -7 4 -2 21 13 48 16 29 21 51 18
73 -12 69 -25 123 -37 156 -11 30 -11 36 3 46 18 13 146 13 167 0z m1150 -52
c0 -18 -6 -23 -25 -23 -28 0 -31 13 -14 57 10 27 11 27 25 9 8 -11 14 -30 14
-43z m-752 26 c29 -30 36 -108 13 -139 -31 -43 -54 -39 -94 20 -23 34 -21 59
8 103 29 42 46 46 73 16z m-6808 -99 c11 0 20 -4 20 -10 0 -5 -9 -10 -20 -10
-14 0 -20 -7 -21 -22 l-2 -23 -4 23 c-3 14 -12 22 -24 22 -10 0 -19 5 -19 10
0 6 9 10 20 10 17 0 20 7 22 58 l2 57 3 -57 c3 -50 7 -58 23 -58z m4664 89
c26 -20 26 -23 20 -97 -8 -94 -22 -113 -91 -119 -68 -7 -90 13 -109 100 -19
82 -13 112 23 125 51 19 128 14 157 -9z m-3803 -46 c13 -16 12 -17 -3 -4 -10
7 -25 11 -33 7 -18 -7 -20 -42 -2 -50 10 -5 10 -7 0 -12 -7 -3 -13 -15 -13
-26 0 -17 5 -20 30 -16 17 3 30 1 30 -3 0 -10 -28 -19 -61 -19 -27 0 -29 2
-23 26 4 17 2 29 -7 35 -12 8 -12 10 0 18 9 6 11 18 7 35 -6 24 -4 26 28 26
20 0 39 -7 47 -17z m3172 0 c2 -5 2 -31 -1 -60 -4 -57 -18 -69 -65 -58 -19 5
-28 17 -36 50 -18 73 -18 75 43 75 30 0 57 -3 59 -7z m-5163 -145 c0 -4 -20
-8 -45 -8 -40 0 -45 2 -44 23 0 12 3 16 6 10 4 -10 63 -20 63 -10 0 1 -7 24
-15 51 -24 79 -16 88 11 12 13 -39 24 -74 24 -78z m3550 107 c0 -22 -4 -25
-34 -25 -19 0 -38 5 -41 10 -4 6 7 10 25 10 18 0 33 6 36 15 9 22 14 18 14
-10z m-549 5 c25 -14 26 -85 2 -112 -17 -19 -103 -26 -103 -8 0 6 5 10 10 10
14 0 12 37 -2 43 -9 4 -9 8 -3 14 14 11 18 43 5 43 -5 0 -10 5 -10 10 0 13 76
13 101 0z m-984 -37 c-3 -10 -5 -4 -5 12 0 17 2 24 5 18 2 -7 2 -21 0 -30z
m6852 5 c5 -13 19 -49 31 -81 l22 -57 -23 -24 c-13 -12 -38 -26 -56 -29 -27
-5 -36 -2 -57 24 -25 29 -25 32 -11 67 11 24 14 50 9 79 l-6 43 41 0 c34 0 43
-4 50 -22z m-8299 -53 c0 -9 7 -30 16 -47 18 -36 6 -60 -21 -38 -10 8 -15 9
-15 1 0 -6 -7 -11 -15 -11 -18 0 -18 4 -5 49 7 24 6 39 -1 48 -9 10 -6 13 15
13 17 0 26 -5 26 -15z m9152 -27 c-7 -7 -12 -8 -12 -2 0 14 12 26 19 19 2 -3
-1 -11 -7 -17z m-7012 -17 c5 -11 10 -34 10 -52 0 -19 7 -37 18 -45 16 -13 16
-13 0 -14 -10 0 -18 -5 -18 -10 0 -6 -6 -5 -14 2 -9 8 -11 17 -5 23 5 5 9 27
9 48 0 30 -4 40 -20 44 -23 6 -27 23 -5 23 8 0 19 -9 25 -19z m7044 -104 c5
-42 3 -49 -14 -55 -11 -4 -37 -6 -58 -4 l-37 4 2 56 c1 53 2 56 35 67 44 15
63 -3 72 -68z m-4604 44 c0 -17 -4 -32 -10 -36 -5 -3 -7 -12 -4 -20 8 -20 -22
-31 -41 -15 -17 14 -30 73 -20 89 3 6 22 11 41 11 31 0 34 -3 34 -29z m-4042
-12 c2 -13 9 -30 15 -38 9 -11 9 -15 0 -18 -7 -3 -13 -20 -13 -38 0 -19 -5
-37 -11 -41 -8 -4 -9 0 -4 15 12 38 7 133 -7 143 -10 8 -10 9 2 5 8 -2 17 -14
18 -28z m4666 -31 c17 -26 16 -32 -4 -102 -11 -35 -22 -51 -40 -58 -42 -16
-66 -2 -89 52 -35 82 -8 130 76 130 33 0 46 -5 57 -22z m-3802 -73 c0 -37 -4
-71 -9 -76 -7 -7 -8 5 -4 33 4 24 4 62 1 86 -4 25 -3 39 3 33 4 -4 9 -39 9
-76z m4673 64 c-4 -6 2 -17 14 -25 36 -26 24 -104 -16 -104 -7 0 -20 11 -28
24 -13 20 -14 30 -3 70 7 26 18 46 26 46 7 0 10 -5 7 -11z m1289 -15 c10 -4
16 -18 16 -35 0 -57 -80 -65 -88 -10 -6 40 29 62 72 45z m-7374 -46 c0 -23
-19 -62 -21 -43 0 6 -2 22 -4 38 -2 18 1 27 11 27 8 0 14 -10 14 -22z m2460
-32 c0 -4 -7 -3 -15 4 -13 10 -19 9 -35 -5 -19 -17 -22 -17 -37 -2 -15 15 -15
16 4 11 11 -3 25 1 32 10 10 12 16 13 32 3 10 -6 19 -16 19 -21z m5875 2 c30
-14 31 -21 4 -46 -16 -16 -19 -27 -14 -54 8 -41 -12 -63 -47 -53 -32 10 -67
55 -68 87 0 15 -4 30 -10 33 -47 29 76 60 135 33z m-5356 -65 c-12 -32 -23
-60 -26 -62 -10 -12 -27 24 -33 69 l-6 50 43 0 43 0 -21 -57z m1606 -10 c-12
-85 -15 -93 -42 -93 -13 0 -22 4 -18 9 3 5 1 12 -4 15 -5 4 -10 31 -10 61 l0
55 41 0 40 0 -7 -47z m-3983 -15 c-9 -9 -9 -15 1 -26 10 -13 8 -14 -9 -8 -16
5 -26 0 -39 -20 -18 -28 -13 -39 20 -47 15 -4 14 -5 -7 -6 -25 -1 -42 20 -37
45 1 5 -1 17 -5 27 -14 32 1 47 46 47 32 0 39 -3 30 -12z m8587 -115 c0 -24
-3 -43 -9 -43 -5 0 -10 12 -11 28 l-1 27 -8 -25 c-7 -25 -7 -25 -11 5 -4 27
-8 30 -44 34 l-40 5 50 5 c46 6 50 8 54 36 l4 30 7 -30 c4 -16 8 -49 9 -72z
m-1814 51 c8 -20 15 -56 15 -80 l0 -44 -40 0 c-47 0 -62 21 -35 50 13 14 16
29 12 54 -5 31 6 56 25 56 4 0 15 -16 23 -36z m-395 -18 c0 -14 -5 -28 -11
-32 -10 -6 -7 -30 7 -67 8 -23 -24 -47 -62 -47 -52 0 -71 14 -72 54 -1 19 -8
51 -16 70 -8 19 -12 37 -8 40 3 3 41 6 84 6 76 0 78 -1 78 -24z m-4567 -5 c-3
-11 8 -44 25 -75 16 -30 27 -58 24 -61 -12 -11 -34 -4 -29 9 6 16 -13 76 -24
76 -11 0 -31 -58 -24 -69 6 -11 -22 -28 -31 -19 -2 3 7 26 22 52 30 54 27 92
-9 99 -14 3 -9 5 15 6 31 1 35 -2 31 -18z m-980 -22 c17 -1 18 -2 5 -6 -18 -4
-22 -20 -18 -79 1 -18 -3 -35 -9 -39 -12 -7 -15 9 -11 73 1 35 -1 42 -17 43
-16 1 -16 2 0 6 9 2 18 12 18 21 1 15 2 15 6 0 2 -10 14 -19 26 -19z m1557
-22 c0 -11 -7 -29 -17 -39 -15 -17 -17 -17 -35 -2 -22 21 -23 52 -1 76 15 17
17 17 35 2 10 -10 18 -26 18 -37z m-2975 13 c-3 -5 -11 -10 -16 -10 -6 0 -7 5
-4 10 3 6 11 10 16 10 6 0 7 -4 4 -10z m5185 -31 c0 -32 -14 -38 -29 -11 -8
13 -12 14 -22 5 -9 -9 -6 -20 14 -47 40 -52 36 -66 -18 -66 -49 0 -64 15 -50
48 7 15 8 16 12 0 2 -9 10 -19 18 -22 29 -11 25 16 -9 63 -20 27 -36 51 -36
54 0 9 30 12 77 8 40 -3 43 -5 43 -32z m906 6 c14 -14 32 -50 39 -80 14 -51
13 -57 -6 -89 l-21 -35 21 -83 c37 -155 41 -191 20 -212 -14 -15 -11 -48 11
-118 l20 -65 -31 -84 c-26 -72 -30 -93 -25 -144 8 -81 7 -118 -4 -129 -14 -14
-108 -17 -116 -4 -4 6 -8 49 -9 94 -1 62 -6 89 -18 102 -13 15 -17 43 -19 139
-2 79 1 125 9 134 15 18 18 55 9 104 -3 22 -2 65 5 95 6 30 12 64 14 76 2 12
11 36 20 54 14 28 15 39 5 76 -19 67 -9 148 21 173 30 25 25 26 55 -4z m-1531
1 c16 -11 17 -17 7 -29 -9 -10 -10 -17 -2 -22 5 -3 10 -15 10 -26 0 -15 -7
-19 -35 -19 -63 0 -82 67 -27 99 22 14 25 13 47 -3z m3735 -65 c16 -31 12 -41
-15 -41 -14 0 -28 -7 -31 -15 -4 -8 -10 -13 -14 -10 -8 5 2 53 15 75 10 16 33
12 45 -9z m-7701 -78 c-1 -17 -3 -21 -6 -10 -3 12 -15 17 -39 17 l-35 0 36
-46 c46 -61 45 -74 -5 -74 -27 0 -40 4 -40 13 0 9 10 12 30 9 17 -2 30 -1 30
2 0 4 -16 28 -35 53 -19 25 -35 50 -35 54 0 5 23 9 50 9 48 0 50 -1 49 -27z
m2388 -30 c-2 -46 -3 -48 -32 -48 -24 0 -30 5 -36 30 -4 17 -10 38 -14 48 -6
15 -1 17 39 17 l45 0 -2 -47z m3733 20 c2 -2 -1 -12 -6 -21 -8 -12 -27 -18
-63 -20 -45 -3 -51 -1 -51 17 0 29 29 42 75 35 22 -4 42 -8 45 -11z m2426 5
c5 -8 2 -9 -11 -5 -9 4 -25 2 -34 -5 -14 -12 -14 -11 -2 5 16 20 37 22 47 5z
m-2316 -12 c0 -9 -30 -14 -35 -6 -4 6 3 10 14 10 12 0 21 -2 21 -4z m-1680
-10 c0 -2 -11 -6 -25 -8 -13 -3 -22 -1 -19 3 5 9 44 13 44 5z m3997 -46 c0
-45 -12 -52 -29 -15 -8 19 -8 28 2 40 20 24 27 18 27 -25z m-4578 12 c5 -9 12
-34 16 -54 l7 -36 -51 0 c-49 0 -51 1 -51 29 0 49 17 79 44 79 14 0 30 -8 35
-18z m-3134 -24 c-3 -38 -30 -115 -46 -135 -13 -15 -39 -18 -39 -3 0 6 9 10
20 10 16 0 20 7 20 31 0 17 -4 39 -10 49 -13 24 15 80 40 80 15 0 18 -6 15
-32z m5486 12 c26 0 29 -3 25 -32 -2 -21 -10 -34 -24 -39 -32 -12 -37 -30 -12
-49 l23 -17 -22 -6 c-39 -10 -60 3 -71 43 -7 28 -17 40 -35 44 -34 9 -31 25 5
32 16 4 35 13 41 21 7 7 19 11 26 8 8 -3 28 -5 44 -5z m-4464 -45 c2 -7 -12
-9 -36 -7 -36 4 -39 2 -34 -17 3 -12 9 -21 14 -21 5 0 9 -4 9 -10 0 -5 -7 -10
-15 -10 -9 0 -15 -9 -15 -21 0 -17 5 -20 25 -17 25 5 34 -5 15 -17 -20 -12
-50 6 -50 31 0 13 -4 24 -10 24 -5 0 -10 5 -10 10 0 6 7 10 15 10 8 0 15 4 15
9 0 5 -7 16 -15 25 -8 8 -15 17 -15 21 0 10 103 1 107 -10z m2717 -21 c30 -11
16 -22 -22 -17 -27 4 -42 1 -51 -11 -12 -14 -10 -16 17 -16 40 0 38 -33 -1
-38 -23 -3 -26 -6 -17 -23 13 -23 47 -25 72 -2 17 15 18 15 18 -8 0 -21 -5
-24 -39 -27 -32 -2 -43 2 -60 24 -24 30 -26 55 -10 87 19 36 52 47 93 31z
m3979 -11 c-7 -17 -38 -17 -52 0 -8 11 -4 13 23 13 22 -1 32 -5 29 -13z
m-8590 0 c3 -5 -5 -8 -18 -8 -13 0 -21 3 -18 8 2 4 10 7 18 7 8 0 16 -3 18 -7z
m2417 -28 c0 -40 -14 -75 -30 -75 -33 0 -44 85 -12 92 24 6 42 -2 42 -17z
m-2967 -15 c4 -17 0 -20 -24 -20 -16 0 -29 5 -29 11 0 6 9 9 20 6 13 -3 20 0
20 9 0 20 7 17 13 -6z m-523 -20 c27 -27 29 -126 3 -146 -50 -38 -99 7 -90 83
5 45 29 83 54 83 7 0 22 -9 33 -20z m4169 -24 c33 -34 2 -236 -36 -236 -19 0
-16 -5 16 -37 24 -25 28 -36 29 -90 1 -82 -16 -99 -83 -82 -35 9 -52 20 -66
43 -30 49 -24 73 29 122 31 29 41 44 30 44 -32 0 -57 60 -59 143 -2 99 13 122
80 114 23 -3 50 -12 60 -21z m881 4 c4 -8 13 -33 20 -55 7 -22 15 -46 17 -52
8 -20 -32 -15 -51 5 -11 13 -14 28 -10 49 3 18 1 33 -5 37 -6 4 -11 14 -11 22
0 19 30 15 40 -6z m-3956 -23 c16 -12 14 -13 -18 -9 -21 2 -43 -1 -54 -9 -13
-11 -13 -9 2 9 22 25 44 28 70 9z m-54 -45 l-35 -5 35 -7 35 -7 -37 -2 c-28
-1 -38 3 -38 14 0 11 10 15 38 13 l37 -1 -35 -5z m20 -62 c14 0 31 5 38 12 9
9 12 8 12 -4 0 -10 -12 -19 -31 -23 -25 -6 -35 -3 -50 14 -11 11 -14 16 -7 11
7 -6 24 -10 38 -10z m820 16 c0 -11 -19 -15 -25 -6 -3 5 1 10 9 10 9 0 16 -2
16 -4z m77 -2 c-3 -3 -12 -4 -19 -1 -8 3 -5 6 6 6 11 1 17 -2 13 -5z m1528
-36 c-10 -121 -52 -117 -61 5 -2 36 -1 37 31 37 34 0 34 0 30 -42z m3972 -4
c3 -8 2 -21 -1 -31 -6 -14 -9 -14 -27 5 -11 12 -24 22 -29 22 -21 0 -16 -18
16 -65 18 -28 34 -53 34 -57 0 -5 -22 -8 -50 -8 -47 0 -50 2 -50 25 0 29 8 32
25 8 7 -9 17 -13 24 -9 8 5 2 20 -18 50 -42 61 -42 69 -1 76 43 7 70 1 77 -16z
m-4537 2 c0 -8 7 -16 15 -20 8 -3 15 -10 15 -16 0 -7 -7 -6 -19 1 -28 18 -53
4 -49 -28 3 -24 7 -28 36 -28 19 0 32 -5 32 -12 0 -7 -7 -13 -15 -13 -8 0 -15
-7 -15 -15 0 -8 -4 -15 -10 -15 -5 0 -10 6 -10 14 0 7 -7 19 -15 26 -20 17
-19 66 3 95 19 27 32 32 32 11z m2143 -98 c6 -38 -8 -54 -32 -38 -10 6 -10 12
-2 28 6 11 11 31 11 43 0 34 16 10 23 -33z m621 33 c10 -11 19 -38 21 -61 1
-22 5 -44 9 -47 14 -14 4 -24 -21 -21 -25 3 -26 6 -27 63 -1 57 -2 60 -26 60
-24 0 -25 -2 -25 -62 0 -59 -1 -63 -22 -63 -19 0 -22 4 -18 28 2 15 7 44 10
64 9 56 64 78 99 39z m-3767 -17 c-3 -3 -12 -4 -19 -1 -8 3 -5 6 6 6 11 1 17
-2 13 -5z m-1878 -46 c18 -49 -10 -78 -69 -74 -19 2 -43 4 -52 5 -20 1 -25 31
-5 31 35 0 86 23 92 40 8 26 24 25 34 -2z m1052 -24 c7 -9 16 -38 19 -65 6
-45 5 -49 -14 -49 -16 0 -17 3 -8 12 27 27 7 108 -27 108 -31 0 -44 -26 -39
-75 4 -32 2 -45 -7 -45 -14 0 -8 98 7 118 14 17 53 15 69 -4z m2395 4 c4 -6 2
-14 -4 -16 -15 -5 -16 -32 -2 -32 6 0 10 -7 10 -15 0 -10 -10 -15 -30 -15 -42
0 -62 40 -35 70 20 22 50 26 61 8z m5060 -35 c-1 -14 7 -18 29 -18 22 0 30 4
29 18 -1 12 6 17 24 17 23 0 24 -1 10 -17 -8 -10 -23 -39 -33 -65 -16 -43 -21
-48 -49 -48 -23 0 -27 3 -16 10 12 8 13 14 1 47 -7 21 -20 46 -29 56 -14 16
-13 17 10 17 18 0 25 -5 24 -17z m-6629 -49 c-3 -3 -12 -4 -19 -1 -8 3 -5 6 6
6 11 1 17 -2 13 -5z m3735 -91 c10 -9 18 -23 18 -32 0 -9 7 -29 15 -45 8 -16
18 -46 21 -67 6 -34 4 -40 -17 -47 -32 -12 -56 -4 -80 27 -21 26 -21 28 -3
112 4 16 0 32 -10 42 -9 8 -16 18 -16 21 0 13 55 5 72 -11z m-2178 -9 c17 -16
22 -74 7 -74 -4 0 -6 11 -3 25 3 16 -2 33 -13 45 -21 24 -13 27 9 4z m-550
-10 c22 -9 20 -51 -3 -64 -13 -7 -22 -7 -26 0 -3 5 3 10 15 10 16 0 21 5 18
22 -4 30 -26 34 -37 6 -6 -13 -10 -17 -10 -7 -1 8 4 20 11 27 14 14 12 14 32
6z m509 -44 c3 -11 1 -20 -4 -20 -5 0 -9 9 -9 20 0 11 2 20 4 20 2 0 6 -9 9
-20z m-2385 -2 c7 -7 12 -29 12 -50 0 -24 6 -41 18 -48 12 -8 13 -13 5 -16
-21 -9 -15 -34 8 -34 11 0 17 -4 14 -10 -11 -18 -35 -10 -47 15 -6 14 -17 25
-25 25 -7 0 -13 5 -13 10 0 6 7 10 15 10 11 0 15 12 15 45 0 38 -3 45 -20 45
-11 0 -20 5 -20 10 0 14 23 13 38 -2z m3096 -29 c23 -18 26 -28 26 -80 0 -56
-1 -59 -24 -59 -17 0 -26 7 -32 28 -4 15 -7 30 -6 35 1 4 -2 7 -7 7 -6 0 -11
-15 -13 -32 -2 -27 -7 -33 -27 -33 -21 0 -25 5 -27 35 -3 50 13 95 39 108 32
15 41 14 71 -9z m-4122 -29 c0 -22 1 -45 2 -51 1 -7 -20 -12 -52 -13 l-52 -1
0 53 0 52 50 0 50 0 2 -40z m8579 -20 c10 0 19 -4 19 -10 0 -5 -9 -10 -20 -10
-11 0 -20 -7 -20 -15 0 -8 9 -15 20 -15 11 0 20 -4 20 -10 0 -5 -9 -10 -20
-10 -15 0 -20 -7 -21 -27 l-2 -28 -4 28 c-3 19 -10 27 -24 27 -10 0 -19 5 -19
10 0 6 9 10 20 10 11 0 20 7 20 15 0 8 -9 15 -20 15 -11 0 -20 5 -20 10 0 6 9
10 20 10 15 0 20 7 21 28 l2 27 4 -27 c3 -20 10 -28 24 -28z m-5139 -67 c2
-18 -1 -31 -7 -30 -5 1 -9 15 -7 30 2 16 -2 36 -9 45 -12 15 -11 16 3 2 9 -8
18 -29 20 -47z m-1522 30 c0 -5 -16 -8 -35 -8 -19 0 -35 3 -35 8 0 4 16 7 35
7 19 0 35 -3 35 -7z m3095 -33 c-3 -5 -10 -10 -16 -10 -5 0 -9 5 -9 10 0 6 7
10 16 10 8 0 12 -4 9 -10z m-2085 -132 c0 -15 -9 -18 -45 -18 -32 0 -45 4 -45
14 0 11 10 13 39 9 l40 -5 -18 60 c-11 34 -16 64 -12 67 6 7 41 -99 41 -127z
m4438 66 c-24 -12 -28 -21 -28 -57 0 -24 5 -48 11 -54 16 -16 2 -33 -26 -33
-32 0 -41 17 -21 39 9 10 16 34 16 54 0 37 27 67 60 67 8 -1 3 -7 -12 -16z
m-1693 -70 c32 -75 28 -103 -17 -137 -34 -26 -70 -17 -96 24 l-20 32 25 66
c31 83 30 81 57 81 19 0 28 -12 51 -66z m-3745 46 c0 -5 -18 -10 -40 -10 -22
0 -40 5 -40 10 0 6 18 10 40 10 22 0 40 -4 40 -10z m-1400 -23 c0 -8 10 -19
23 -26 15 -8 16 -10 2 -4 -11 3 -36 7 -55 7 -25 1 -36 6 -38 19 -3 14 4 17 32
17 24 0 36 -5 36 -13z m-590 -17 c0 -5 7 -10 15 -10 8 0 15 5 15 10 0 6 14 10
30 10 34 0 37 -5 15 -26 -8 -8 -22 -37 -32 -64 -16 -46 -20 -50 -50 -50 -18 0
-33 5 -33 10 0 6 7 10 15 10 8 0 15 3 15 7 0 18 -34 93 -41 93 -5 0 -9 5 -9
10 0 6 14 10 30 10 17 0 30 -4 30 -10z m1120 -100 c11 0 20 -4 20 -10 0 -5 -9
-10 -20 -10 -14 0 -20 -7 -21 -22 l-2 -23 -4 23 c-3 14 -12 22 -24 22 -10 0
-19 5 -19 10 0 6 9 10 20 10 17 0 20 7 22 58 l2 57 3 -57 c3 -50 7 -58 23 -58z
m3019 96 c6 -8 14 -31 17 -52 2 -21 10 -42 17 -47 9 -7 9 -10 0 -14 -21 -8
-15 -30 10 -38 l22 -8 -24 -4 c-17 -3 -29 1 -38 14 -7 10 -18 24 -25 32 -9 11
-9 16 0 19 7 2 12 22 12 48 0 37 -3 44 -20 44 -11 0 -20 5 -20 10 0 15 36 12
49 -4z m976 -7 c9 -13 7 -15 -27 -23 -21 -5 -28 -3 -28 8 0 12 13 20 42 25 4
0 10 -4 13 -10z m2386 -39 c5 0 9 -4 9 -9 0 -13 -36 -20 -51 -10 -11 8 -11 11
4 20 9 5 18 18 18 27 1 11 3 8 6 -5 2 -13 9 -23 14 -23z m1179 0 c0 -6 -28
-10 -65 -10 -36 0 -65 4 -65 8 0 5 29 9 65 10 38 1 65 -2 65 -8z m-47 -44 c18
-14 25 -42 7 -31 -5 3 -10 -3 -10 -14 0 -23 35 -30 43 -8 3 6 6 2 6 -10 1 -21
-4 -23 -49 -23 -49 0 -68 13 -31 23 24 6 23 53 -1 51 -9 -1 -19 5 -22 12 -7
18 33 18 57 0z m-6666 -32 c-3 -3 -12 -4 -19 -1 -8 3 -5 6 6 6 11 1 17 -2 13
-5z m3133 -30 c0 -7 8 -29 17 -49 16 -33 16 -36 0 -53 -15 -14 -19 -15 -26 -3
-6 9 -11 10 -15 2 -5 -8 -11 -7 -21 2 -11 10 -11 18 1 46 11 26 12 37 2 48 -9
11 -9 16 2 23 17 11 40 2 40 -16z m2231 2 c17 -19 28 -23 57 -19 47 6 65 -13
81 -87 7 -30 17 -67 23 -82 7 -18 6 -33 -2 -47 -6 -13 -7 -27 -2 -37 5 -10 3
-36 -6 -70 -13 -46 -13 -60 -2 -94 12 -38 12 -42 -10 -65 -29 -31 -37 -31 -71
1 -26 25 -26 28 -13 59 12 30 12 36 -2 49 -8 9 -24 16 -33 16 -48 0 -118 100
-107 152 4 22 0 31 -19 44 -27 18 -33 55 -12 72 6 6 26 12 42 14 31 3 32 4 34
81 1 43 13 47 42 13z m-5341 -80 c0 0 -14 -2 -32 -3 -28 -2 -29 -1 -13 10 16
12 16 15 1 29 -9 9 -16 22 -16 29 0 6 14 -5 30 -26 17 -21 30 -38 30 -39z
m3731 -16 c24 -43 24 -107 2 -162 -16 -40 -16 -42 2 -52 54 -32 72 -81 40
-112 -8 -9 -15 -26 -15 -38 0 -55 -68 -56 -101 -2 -30 50 -34 91 -11 123 18
27 18 29 2 55 -24 40 -27 189 -4 212 26 27 64 16 85 -24z m-5701 -9 c0 -5 7
-17 17 -26 24 -25 24 -75 0 -109 l-20 -29 -29 32 c-31 34 -38 88 -13 97 8 3
17 14 20 25 6 19 25 27 25 10z m1080 -31 c0 -16 5 -30 11 -30 17 0 5 -89 -15
-108 -24 -24 -26 -12 -14 62 9 52 9 73 0 87 -10 15 -9 19 3 19 10 0 15 -10 15
-30z m8987 3 c4 -11 -54 -29 -64 -19 -3 3 -3 12 1 21 7 19 57 17 63 -2z
m-5912 -104 c19 -7 19 -8 -2 -8 -17 -1 -23 -7 -24 -23 l0 -23 -9 23 c-5 12
-17 22 -27 23 -14 0 -13 2 5 9 19 8 22 18 24 62 l1 53 6 -54 c5 -42 11 -56 26
-62z m-1460 72 l20 -24 -21 5 c-12 3 -28 1 -37 -4 -15 -8 -15 -5 1 21 9 16 17
29 17 28 0 -1 9 -13 20 -26z m5951 -28 c-2 -16 -10 -27 -21 -29 -34 -5 -47
-44 -15 -44 11 0 20 -7 20 -15 0 -18 -21 -19 -42 -3 -16 13 -33 92 -23 109 4
5 24 9 45 9 36 0 38 -2 36 -27z m-3547 -22 c11 -7 9 -10 -6 -15 -13 -4 -23
-19 -27 -39 -5 -25 -9 -29 -16 -17 -5 8 -10 27 -10 42 0 24 7 30 40 37 3 0 11
-3 19 -8z m-3110 -38 c0 -27 -1 -27 -9 -5 -5 12 -14 22 -20 22 -13 0 -13 -27
0 -35 5 -3 7 -19 3 -36 -5 -24 -3 -28 11 -23 11 4 16 1 16 -14 0 -21 -24 -32
-75 -32 -44 0 -56 15 -39 48 8 15 14 44 14 65 l0 37 50 0 c48 0 50 -1 49 -27z
m707 3 c30 8 31 -2 2 -26 -22 -18 -23 -18 -40 8 -22 34 -23 49 -2 28 10 -10
24 -14 40 -10z m6135 -112 c11 -14 10 -15 -11 -12 -13 1 -25 9 -28 16 -5 17
23 15 39 -4z m-8766 -17 c13 -11 18 -28 20 -71 1 -31 -3 -64 -9 -72 -6 -8 -34
-17 -62 -20 -47 -6 -53 -4 -67 17 -18 27 -33 120 -24 144 8 20 115 21 142 2z
m4063 -43 c2 -16 8 -34 13 -41 7 -7 6 -14 -1 -18 -5 -3 -10 -19 -10 -34 0 -16
-7 -34 -15 -41 -15 -13 -15 -5 -1 72 2 9 0 35 -4 57 -5 30 -4 41 4 38 6 -2 13
-17 14 -33z m-1428 -83 c21 -40 -21 -71 -49 -37 -9 11 -10 20 -1 35 14 26 36
27 50 2z"/>
<path d="M3455 10107 c-56 -32 -58 -54 -5 -59 44 -4 66 8 28 15 -13 2 1 5 30
6 58 1 69 18 30 45 -29 21 -35 20 -83 -7z"/>
<path d="M3494 9945 c-9 -23 4 -47 23 -43 22 4 30 38 11 49 -19 13 -28 11 -34
-6z"/>
<path d="M4306 9885 c4 -8 8 -15 10 -15 2 0 4 7 4 15 0 8 -4 15 -10 15 -5 0
-7 -7 -4 -15z"/>
<path d="M4299 9698 c-4 -18 -3 -58 2 -58 10 0 17 50 8 56 -5 3 -9 4 -10 2z"/>
<path d="M4346 9692 c-3 -6 -1 -14 5 -17 14 -9 20 -2 10 14 -6 8 -11 9 -15 3z"/>
<path d="M4288 9603 c6 -2 18 -2 25 0 6 3 1 5 -13 5 -14 0 -19 -2 -12 -5z"/>
<path d="M3500 9220 c0 -18 4 -20 23 -14 25 7 32 12 26 18 -2 2 -14 7 -26 10
-19 6 -23 4 -23 -14z"/>
<path d="M3500 9080 c0 -18 4 -20 23 -14 25 7 32 12 26 18 -2 2 -14 7 -26 10
-19 6 -23 4 -23 -14z"/>
<path d="M3436 9065 c-17 -13 -17 -15 -3 -21 23 -8 47 2 47 21 0 19 -19 19
-44 0z"/>
<path d="M8264 9044 c3 -9 6 -18 6 -20 0 -2 7 -4 15 -4 20 0 19 26 -1 34 -24
9 -27 8 -20 -10z"/>
<path d="M4988 8053 c-24 -6 -23 -23 2 -23 11 0 20 7 20 15 0 8 -1 14 -2 14
-2 -1 -11 -3 -20 -6z"/>
<path d="M1418 8453 c7 -3 16 -2 19 1 4 3 -2 6 -13 5 -11 0 -14 -3 -6 -6z"/>
<path d="M4310 8330 c0 -5 5 -10 11 -10 5 0 7 5 4 10 -3 6 -8 10 -11 10 -2 0
-4 -4 -4 -10z"/>
<path d="M2460 6725 l0 -195 75 37 75 37 0 158 0 158 -75 0 -75 0 0 -195z"/>
<path d="M2528 6334 l-68 -34 0 -134 0 -134 55 -26 c30 -15 64 -39 75 -53 l20
-26 0 222 c0 121 -3 221 -7 221 -5 -1 -38 -17 -75 -36z"/>
<path d="M2150 5479 l0 -281 68 38 c37 20 74 41 82 46 8 4 27 12 43 18 l27 10
0 225 0 225 -110 0 -110 0 0 -281z m192 96 c1 -19 2 -42 2 -52 1 -9 -5 -18
-11 -20 -9 -3 -13 8 -13 36 0 36 -3 41 -22 41 -23 0 -23 1 2 14 37 21 40 19
42 -19z"/>
<path d="M5990 7929 c0 -5 5 -7 10 -4 6 3 10 8 10 11 0 2 -4 4 -10 4 -5 0 -10
-5 -10 -11z"/>
<path d="M3006 7891 c-3 -5 1 -17 10 -25 14 -15 14 -16 0 -16 -10 0 -16 -9
-16 -25 0 -20 5 -25 25 -25 29 0 48 29 43 68 -2 21 -9 28 -30 30 -14 2 -29 -1
-32 -7z"/>
<path d="M552 7603 c2 -10 11 -19 21 -21 24 -5 21 15 -4 28 -18 10 -20 9 -17
-7z"/>
<path d="M1410 7631 c0 -17 12 -41 21 -41 5 0 9 11 9 25 0 16 -6 25 -15 25 -8
0 -15 -4 -15 -9z"/>
<path d="M5980 6655 c0 -207 3 -266 13 -264 34 4 57 -2 57 -17 0 -10 -6 -14
-15 -11 -8 4 -17 2 -21 -4 -4 -6 -11 -6 -20 2 -12 10 -14 -1 -14 -70 0 -45 4
-80 8 -77 29 18 56 -65 42 -129 -5 -22 -8 -40 -7 -41 1 -1 26 -4 55 -8 l52 -7
0 446 0 445 -75 0 -75 0 0 -265z m55 25 c-3 -5 -15 -10 -26 -10 -10 0 -19 5
-19 10 0 6 12 10 26 10 14 0 23 -4 19 -10z"/>
<path d="M8672 6478 l3 -443 78 -3 77 -3 0 446 0 445 -80 0 -80 0 2 -442z"/>
<path d="M8490 5830 c0 -5 9 -10 20 -10 11 0 20 -4 20 -10 0 -5 7 -10 15 -10
8 0 15 -4 15 -10 0 -5 -7 -10 -15 -10 -8 0 -15 5 -15 10 0 6 -9 10 -20 10 -16
0 -20 -7 -20 -30 0 -29 2 -30 44 -30 34 0 46 4 49 18 3 10 5 6 6 -10 1 -27 -1
-28 -50 -28 l-50 0 2 -85 c1 -71 5 -88 20 -99 11 -7 16 -16 12 -19 -3 -4 -12
1 -19 11 -11 14 -13 -1 -14 -100 l0 -118 43 -2 c40 -1 40 -1 7 -5 -42 -6 -50
-16 -50 -70 0 -41 1 -43 29 -43 16 0 31 5 33 12 3 7 7 6 11 -5 5 -14 0 -17
-34 -17 l-40 0 2 -95 1 -95 27 -1 c25 -1 25 -2 -4 -9 l-30 -7 30 -5 c29 -5 29
-5 3 -7 l-27 -1 0 -220 -1 -220 105 0 105 0 0 660 0 660 -105 0 c-63 0 -105
-4 -105 -10z m73 -266 c-2 -7 -11 -15 -18 -18 -9 -3 -12 0 -9 9 3 7 -2 15 -13
18 -10 3 -4 5 13 4 21 -1 30 -5 27 -13z m-6 -100 c-3 -3 -12 -4 -19 -1 -8 3
-5 6 6 6 11 1 17 -2 13 -5z m7 -437 c15 -11 12 -12 -23 -9 -23 2 -38 8 -35 13
8 13 37 11 58 -4z m6 -106 c0 -12 -48 -23 -63 -14 -7 5 1 10 23 14 19 4 36 7
38 8 1 0 2 -3 2 -8z m-9 -178 c12 -16 12 -17 -1 -7 -8 7 -24 14 -35 17 -19 4
-19 5 1 6 12 0 28 -7 35 -16z m24 -103 c3 -6 -4 -10 -17 -10 -18 0 -20 2 -8
10 19 12 18 12 25 0z"/>
<path d="M1410 6531 c0 -10 6 -22 13 -25 10 -5 10 -7 0 -12 -7 -3 -13 -14 -13
-25 0 -30 48 -26 56 5 11 45 1 71 -28 74 -22 3 -28 -1 -28 -17z"/>
<path d="M760 5485 l0 -275 110 55 110 55 0 174 c0 95 -3 194 -6 220 l-7 46
-103 0 -104 0 0 -275z"/>
<path d="M3550 5739 c0 -17 5 -20 37 -17 27 2 39 8 41 21 3 14 -4 17 -37 17
-35 0 -41 -3 -41 -21z"/>
<path d="M3550 4889 c0 -24 23 -21 28 4 2 10 -3 17 -12 17 -10 0 -16 -9 -16
-21z"/>
<path d="M7030 6475 l0 -446 78 3 77 3 3 400 c2 220 0 419 -3 443 l-6 42 -75
0 -74 0 0 -445z"/>
<path d="M6803 5725 c0 -22 2 -30 4 -17 2 12 2 30 0 40 -3 9 -5 -1 -4 -23z"/>
<path d="M7100 5140 l0 -620 105 0 105 0 0 620 0 620 -105 0 -105 0 0 -620z"/>
<path d="M9466 6665 c-21 -32 -16 -41 13 -25 23 12 25 18 12 38 -6 10 -12 7
-25 -13z"/>
<path d="M9440 4844 c0 -9 7 -14 17 -12 25 5 28 28 4 28 -12 0 -21 -6 -21 -16z"/>
<path d="M2567 3984 c-8 -8 1 -24 14 -24 5 0 9 7 9 15 0 15 -12 20 -23 9z"/>
<path d="M1690 4180 c0 -5 7 -10 15 -10 8 0 15 5 15 10 0 6 -7 10 -15 10 -8 0
-15 -4 -15 -10z"/>
<path d="M540 4121 c0 -12 7 -21 15 -21 8 0 15 -4 15 -10 0 -5 -7 -10 -15 -10
-8 0 -15 -9 -15 -20 0 -14 7 -20 24 -20 32 0 48 22 44 62 -3 29 -7 33 -35 36
-28 3 -33 0 -33 -17z"/>
<path d="M1700 3905 c0 -8 6 -15 14 -15 8 0 16 7 20 15 4 10 -1 15 -14 15 -11
0 -20 -7 -20 -15z"/>
<path d="M10300 3473 c0 -5 5 -15 10 -23 8 -12 10 -11 10 8 0 12 -4 22 -10 22
-5 0 -10 -3 -10 -7z"/>
<path d="M560 2680 c0 -5 5 -10 11 -10 5 0 7 5 4 10 -3 6 -8 10 -11 10 -2 0
-4 -4 -4 -10z"/>
<path d="M5225 2523 c-31 -8 -75 -43 -75 -59 0 -23 29 -76 59 -107 25 -27 26
-33 24 -122 -2 -77 0 -97 15 -115 24 -29 49 -21 84 28 51 73 61 229 17 273
-10 10 -19 22 -19 27 0 8 -75 83 -81 81 -2 -1 -13 -4 -24 -6z"/>
<path d="M3560 2461 c0 -12 7 -21 15 -21 22 0 18 -17 -5 -23 -11 -3 -20 -13
-20 -22 0 -12 8 -16 32 -13 61 6 65 89 4 96 -21 3 -26 -1 -26 -17z"/>
<path d="M1717 2063 c-12 -11 -8 -23 8 -23 8 0 15 7 15 15 0 16 -12 20 -23 8z"/>
<path d="M9240 1163 c0 -5 4 -14 9 -22 7 -11 11 -9 20 8 10 18 9 21 -9 21 -11
0 -20 -3 -20 -7z"/>
<path d="M7984 345 c-3 -8 -2 -27 3 -42 12 -37 69 -45 97 -14 22 24 14 39 -30
57 -43 18 -63 18 -70 -1z"/>
<path d="M9235 380 c4 -6 11 -8 16 -5 14 9 11 15 -7 15 -8 0 -12 -5 -9 -10z"/>
<path d="M637 95 c-4 -8 -2 -17 3 -20 6 -4 10 3 10 14 0 25 -6 27 -13 6z"/>
<path d="M3450 10785 c0 -8 5 -15 10 -15 6 0 10 -6 10 -14 0 -14 21 -26 45
-26 20 0 45 28 45 51 0 16 -7 19 -55 19 -42 0 -55 -3 -55 -15z"/>
<path d="M4302 10783 c5 -25 28 -28 28 -4 0 12 -6 21 -16 21 -9 0 -14 -7 -12
-17z"/>
<path d="M5030 10796 c0 -19 33 -76 47 -80 25 -7 178 -12 180 -6 1 3 6 17 12
32 18 46 -9 58 -132 58 -59 0 -107 -2 -107 -4z"/>
<path d="M1398 10573 c7 -3 16 -2 19 1 4 3 -2 6 -13 5 -11 0 -14 -3 -6 -6z"/>
<path d="M1407 10527 c-3 -8 -1 -20 4 -28 6 -10 9 -7 9 14 0 29 -5 35 -13 14z"/>
<path d="M1405 10300 c3 -5 8 -10 11 -10 2 0 4 5 4 10 0 6 -5 10 -11 10 -5 0
-7 -4 -4 -10z"/>
<path d="M10141 44 c0 -11 3 -14 6 -6 3 7 2 16 -1 19 -3 4 -6 -2 -5 -13z"/>
</g>
</svg>
